<?xml version="1.0" standalone="no"?>
<!DOCTYPE svg PUBLIC "-//W3C//DTD SVG 20010904//EN"
 "http://www.w3.org/TR/2001/REC-SVG-20010904/DTD/svg10.dtd">
<svg version="1.0" xmlns="http://www.w3.org/2000/svg"
 width="50pt" height="50pt" viewBox="0 0 512.000000 512.000000"
 preserveAspectRatio="xMidYMid meet">

<g transform="translate(0.000000,512.000000) scale(0.100000,-0.100000)"
fill="#163E73" stroke="none">
<path d="M2368 4909 c-821 -68 -1553 -564 -1917 -1299 -37 -74 -82 -178 -100
-230 -19 -52 -38 -101 -44 -107 -12 -16 -63 -266 -82 -398 -51 -369 -8 -772
120 -1122 293 -797 993 -1379 1825 -1517 642 -106 1284 51 1808 443 135 101
308 267 408 391 497 617 656 1424 429 2174 -189 622 -627 1139 -1208 1425
-167 82 -294 130 -450 170 -269 69 -525 92 -789 70z m457 -244 c768 -101 1422
-608 1704 -1322 40 -99 101 -301 101 -331 0 -18 -76 -13 -251 18 -341 59 -620
171 -1024 410 -308 182 -506 273 -654 300 -99 18 -255 13 -346 -10 -168 -43
-310 -131 -437 -272 -153 -169 -300 -251 -527 -294 -120 -23 -315 -21 -461 5
-111 19 -347 85 -363 100 -20 20 118 307 224 466 130 193 343 425 392 425 42
0 229 -61 402 -131 94 -37 208 -77 255 -88 335 -79 672 -15 972 185 117 78
138 102 138 159 0 51 -28 91 -77 111 -46 20 -74 10 -168 -54 -206 -142 -472
-218 -673 -193 -119 15 -203 37 -300 78 -48 20 -140 55 -206 78 l-119 42 91
52 c240 137 505 227 782 266 133 18 405 18 545 0z m-185 -1159 c120 -12 288
-88 580 -264 216 -130 420 -237 565 -296 244 -99 527 -167 807 -191 l77 -7 7
-57 c11 -88 -3 -344 -27 -481 -19 -114 -78 -342 -97 -376 -5 -9 -22 10 -54 64
-79 131 -167 242 -293 367 -143 143 -267 233 -430 314 -253 126 -496 181
-1030 231 -514 48 -641 49 -1220 9 -255 -18 -910 5 -1042 36 -30 7 -30 20 2
161 5 21 6 21 117 -13 387 -118 728 -127 1024 -28 170 57 282 132 449 299 132
133 202 182 310 216 44 15 149 28 180 24 11 -2 45 -5 75 -8z m-1935 -918 c186
-18 806 -17 1025 2 330 28 669 16 1200 -41 552 -60 824 -173 1115 -464 116
-116 181 -201 289 -377 36 -59 72 -118 80 -130 15 -22 12 -29 -52 -131 -37
-59 -88 -134 -113 -167 l-46 -60 -11 148 c-21 274 -86 422 -234 534 -206 156
-468 154 -1033 -8 -380 -110 -497 -156 -742 -292 -211 -117 -340 -152 -565
-152 -149 0 -256 21 -486 94 -171 55 -312 88 -430 101 l-64 7 -29 66 c-98 218
-157 480 -175 781 l-7 114 74 -6 c41 -4 133 -12 204 -19z m3005 -824 c199 -59
266 -234 241 -634 l-12 -175 -38 -35 c-41 -37 -172 -132 -232 -168 l-36 -22
-45 93 c-49 100 -132 211 -200 268 -234 193 -405 200 -875 33 -166 -59 -800
-307 -939 -367 l-82 -35 -103 68 c-132 86 -275 206 -374 312 -81 88 -229 277
-222 285 7 6 113 -22 255 -68 261 -84 453 -116 627 -105 219 13 398 62 560
151 280 154 342 181 636 269 241 72 397 112 508 131 111 19 266 18 331 -1z
m-610 -774 c84 -24 213 -150 269 -264 54 -112 56 -106 -56 -148 -293 -108
-515 -144 -823 -135 -207 6 -335 26 -529 82 -204 58 -214 44 116 175 690 273
886 329 1023 290z"/>
<path d="M1656 2439 c-353 -37 -629 -164 -721 -330 -24 -45 -30 -65 -29 -119
0 -80 24 -131 90 -189 105 -92 269 -140 509 -148 438 -15 849 138 946 351 26
57 25 147 -1 202 -85 175 -417 273 -794 233z m397 -254 c85 -18 177 -59 177
-78 0 -20 -61 -72 -118 -101 -229 -114 -619 -149 -857 -75 -36 11 -76 30 -90
42 l-26 22 33 32 c82 79 313 156 528 177 79 7 283 -3 353 -19z"/>
</g>
</svg>
