<?xml version="1.0" encoding="UTF-8"?>
<svg id="Capa_2" data-name="Capa 2" xmlns="http://www.w3.org/2000/svg" viewBox="0 0 91.71 82.59">
  <defs>
    <style>
      .cls-1 {
        fill: #fefefe;
      }

      .cls-1, .cls-2, .cls-3 {
        stroke-width: 0px;
      }

      .cls-2 {
        fill: #9c9c9c;
      }

      .cls-3 {
        fill: #13396f;
      }
    </style>
  </defs>
  <g id="Capa_1-2" data-name="Capa 1">
    <path class="cls-2" d="M76.72,66.19c1.14,3.12,2.66,6.11,4.11,9.12.13.26.23.53.35.8.67,1.6,1.25,3.22,2.14,4.73.21.35.42.74.36,1.18h.01c-1.42-.68-2.45-1.81-3.58-2.77-2.71-2.31-5.43-4.6-8.17-6.88-.46-.38-.64-.4-1,.11-1.06,1.49-2.27,2.88-3.66,4.14-1.08.98-2.51,1.5-3.83,2.13-4.58,2.18-9.59,3.06-14.63,3.78-1.63.23-3.28-.21-4.93-.21-4.95.02-9.76-.73-14.37-2.37-2.48-.89-4.8-2.07-6.99-3.48-1.7-1.09-3.23-2.34-4.68-3.67-.68-.61-1.1-.09-1.49.21-.88.68-1.71,1.4-2.59,2.08-2.2,1.71-4.31,3.52-6.47,5.28-.41.34-.88.62-1.47.84,2.56-5.27,5.12-10.54,7.67-15.81.35-.01.7-.03,1.05-.03,14.67.21,29.34.45,44.02.61,2.41.03,4.83-.11,7.24.06.17.11.36.2.51.32,2.88,2.47,5.71,4.99,8.67,7.38,1.21.97,2.16,2.22,3.72,2.99-1.58-3.6-3.11-7.09-4.64-10.58.89.01,1.78.03,2.67.04h-.02Z"/>
    <path class="cls-2" d="M22.62,47.1c.37-1.6,1.19-3.04,1.92-4.51.1-.2.3-.41.41-.64,1.4-2.97,2.74-5.97,4.21-8.92,1.79-3.6,3.48-7.25,5.28-10.85.7-1.41,1.34-2.84,2.04-4.25,1.87-3.75,3.65-7.53,5.49-11.28.88-1.79,1.68-3.61,2.55-5.41.48-.98,1.22-1.48,1.92-1.12.6.31.79.99,1.09,1.54.27.51.44,1.07.66,1.61,1.1,2.75,2.42,5.42,3.61,8.13,1.5,3.41,3.08,6.8,4.61,10.2,1.58,3.49,3.12,6.99,4.75,10.46.82,1.75,1.49,3.56,2.35,5.29,1.72,3.47,3.26,7,4.76,10.55.14.32.58.49.47.9-1.45-.64-2.73-1.52-3.91-2.51.42-.3.06-.6-.04-.86-.35-.92-.86-1.8-1.26-2.7-1.54-3.54-3.04-7.09-4.74-10.57-.89-1.82-1.58-3.72-2.43-5.57-1.59-3.48-3.15-6.98-4.68-10.48-1.22-2.8-2.57-5.56-3.68-8.4-.18-.45-.25-.97-.7-1.43-.14,1.78-.31,3.46-.39,5.1-.38,8.55-.53,17.11-.75,25.66,0,.31-.12.65.2.9-.51.33-.98.73-1.54.96-.89.36-1.58,1.16-2.57,1.19-1.43.05-2.83-.2-4.16-.77-1.3-.55-2.72-.74-4.07-.26-1.13.4-2.08,1.12-3.01,1.87-2.01,1.62-4,3.27-6.13,4.74-.71.5-1.34,1.19-2.29,1.41l.03.02Z"/>
    <path class="cls-3" d="M22.62,47.1c.95-.22,1.57-.92,2.29-1.41,2.13-1.48,4.13-3.12,6.13-4.74.92-.74,1.87-1.47,3.01-1.87,1.35-.48,2.77-.29,4.07.26,1.34.57,2.73.82,4.16.77.99-.04,1.69-.83,2.57-1.19.56-.23,1.03-.63,1.54-.96.81-.26,1.37-.87,2.08-1.27.73-.42,1.45-.91,2.32-1,1.52-.16,2.88.29,4.09,1.14,1.8,1.28,3.13,2.97,4.72,4.43,1.78,1.65,3.4,3.44,5.25,5.04,1.18,1,2.45,1.87,3.91,2.51,1.4,1.18,3.17,1.64,4.95,1.77,5.64.4,11.3.44,16.95.45,1.48,0,.89.84,1.01,1.44.16.83-.33.89-1.07.88-5.31-.11-10.61-.21-15.92-.24-1.51,0-2.86-.51-4.27-.82-1.01-.43-1.97-.94-3.04-1.23-.44-.53-1.13-.71-1.7-1.07-2.65-1.72-4.95-3.79-7.11-5.98-1.77-1.79-3.6-3.53-5.46-5.24-.94-.86-1.94-.96-3.13-.4-1.54.72-2.66,1.91-4.04,2.81-.6.37-1.16.88-1.82,1.08-2.22.66-4.46.66-6.56-.41-1.4-.71-2.51-.69-3.85.3-1.33.97-2.62,1.99-3.9,3.03-.93.76-1.8,1.59-2.79,2.3-2.02,1.45-4.14,2.77-6.54,3.67-.12,0-.31-.09-.25.15v-.03c-6.12.7-12.25.04-18.37.14-.86,0-1.04-.24-.99-.97.1-1.52.05-1.52,1.76-1.5,4.74.07,9.48.13,14.23.24,1.55.04,2.97-.24,4.23-1.07.45-.3,1.08-.31,1.4-.78.13-.02.19-.08.15-.2h0v-.03Z"/>
    <path class="cls-3" d="M70.79,53.6c1.39.47,2.85.63,4.31.66,5.16.11,10.33.19,15.5.24.84,0,1.15.15,1.1.98-.1,1.51-.04,1.51-1.67,1.49-5.1-.08-10.19-.18-15.29-.22-.85,0-1.65-.3-2.49-.21-.86-.34-1.8-.24-2.68-.43-3.33-.84-6.41-2.18-9.37-3.77-2.66-1.42-5.33-2.84-8.12-4.04-1.98-.85-4.02-1.57-6.28-1.41-.68,0-1.31-.33-2.06-.12-1.09.31-2.05.75-2.93,1.4-.46.34-.9.63-1.54.74-1.45.26-2.85.15-4.25-.19-1.21-.3-2.4-.45-3.43.4-.98.8-1.98,1.58-3.02,2.33-2.98,2.13-6.21,3.61-10.08,3.69-.12,0-.3-.08-.24.15v-.03c-5.46-.08-10.93-.18-16.4-.22-.87,0-1.12-.2-1.08-1.01.1-1.64.04-1.64,1.88-1.61,5.2.09,10.39.18,15.59.27.52,0,1.05.07,1.57-.08.21,0,.42.01.62-.03,2.79-.55,4.94-2.16,7.12-3.67,1.25-.87,2.5-1.73,3.75-2.6.65-.46,1.43-.56,2.09-.26,2.28,1.04,4.42.42,6.45-.44,1.94-.82,3.9-1.34,6.02-1.4.79.37,1.66.14,2.48.29,2.65.49,5.04,1.55,7.35,2.79,2.51,1.35,5,2.73,7.58,3.96,1.45.69,2.99,1.28,4.62,1.58v-.02c-.06.2.09.17.22.17.87.31,1.77.53,2.69.63h-.01Z"/>
    <path class="cls-3" d="M16.77,58.36c-4.28.03-8.56.07-12.83.1-1.09,0-2.18-.03-3.27,0-.51.01-.72-.15-.66-.6v-.19c0-2.26,0-2.27,2.49-2.22,5.06.1,10.11.2,15.17.29.21,0,.42-.04.62-.07,1.37.16,2.72.05,4.06-.21,3.7-.74,6.99-2.37,10.28-3.98.8-.39,1.55-.88,2.51-.9,2.04-.04,4.11,0,6.02.68,2.85.99,5.69,1.71,8.77,1.25,1.22-.07,2.44-.18,3.66-.2,1.21-.02,2.43,0,3.57.47,2.68,1.13,5.34,2.29,8.04,3.36,1.5.6,3.05,1.1,4.75.89.83.01,1.66.03,2.49.04,5.75.1,11.5.23,17.26.28,1.05,0,1.4.22,1.3,1.21-.13,1.29-.04,1.29-1.48,1.27-5.23-.08-10.45-.15-15.68-.22-.88,0-1.76-.02-2.64-.03-2.08.05-4.1-.29-6.02-.98-2.79-1-5.48-2.19-8.17-3.38-1.4-.62-2.88-.83-4.4-.37-.97-.03-1.85.27-2.72.59-.94.35-1.93.44-2.87.13-2.43-.79-4.82-1.68-7.25-2.49-1.66-.55-3.27-.67-4.97.09-2.47,1.1-4.88,2.32-7.47,3.21-1.69.58-3.35,1.33-5.13,1.59-1.79.26-3.62.26-5.43.38h0Z"/>
    <path class="cls-3" d="M76.72,66.19c-.89-.01-1.78-.03-2.67-.04-2.75-.04-5.5-.08-8.26-.11-2.41-.17-4.83-.03-7.24-.06-14.67-.16-29.34-.4-44.02-.61-.35,0-.7.02-1.05.03-3.93-.08-7.86-.18-11.79-.22-.88,0-1.12-.22-1.08-1.02.09-1.66.04-1.65,1.84-1.62,4.18.06,8.35.09,12.53.14.31.03.63.07.94.07,14.88.24,29.75.49,44.63.72.7.01,1.4-.03,2.1-.05,3.39.16,6.77.19,10.16.17.83.01,1.66.02,2.49.03,4.24.08,8.48.17,12.72.25.49,0,.98,0,1.47.02,1.64.05,1.32-.17,1.42,1.26.07,1-.27,1.24-1.37,1.21-4.27-.12-8.55-.14-12.82-.19v.02Z"/>
    <path class="cls-3" d="M74.1,60.72c4.98.09,9.96.19,14.94.28,1.94.04,1.91.03,1.91,1.76,0,.62-.22.74-.85.72-4.87-.15-9.74-.28-14.61-.42-.07,0-.14.01-.21.02-.88-.01-1.77-.02-2.65-.03-2.54-.19-5.08-.4-7.58-.92-1.54-.32-3.06-.81-4.67-.84l.02.02c.08-.24-.12-.17-.25-.17-.81-.2-1.61-.4-2.42-.59-4.34-1-8.68-1.93-13.22-1.46-3.53.37-7.08.64-10.6,1.04-6.22.71-12.37,1.93-18.69,1.85-4.49-.15-8.97-.32-13.46-.42-.86-.02-1.23-.19-1.07-1,.04-.19.04-.39,0-.57-.11-.73.15-.98,1.01-.93,4.27.23,8.54.4,12.82.58.59.03,1.19,0,1.79,0,.45,0,.92.07,1.36.01,2.04-.25,4.07-.59,6.11-.79,4.44-.44,8.84-1.13,13.26-1.67,1.52-.18,3.05-.55,4.56-.51,4.65.12,9.34-.3,13.93.71,2.18.59,4.37,1.18,6.55,1.78,3.1.85,6.19,1.75,9.49,1.52.83,0,1.67.02,2.5.02h.02Z"/>
    <path class="cls-2" d="M15.22,61.98c6.31.08,12.47-1.14,18.69-1.85,3.53-.4,7.07-.67,10.6-1.04,4.53-.47,8.88.45,13.22,1.46.81.19,1.62.39,2.42.59.08.06.16.11.24.17l-.02-.02c.67.79,1.72,1.25,2.27,2.14-.7.02-1.4.06-2.1.05-14.88-.24-29.75-.48-44.63-.72-.31,0-.63-.05-.94-.07-.04-.27.09-.49.24-.71h0Z"/>
    <path class="cls-2" d="M55.55,57.4c-4.6-1.01-9.28-.59-13.93-.71-1.51-.04-3.04.32-4.56.51-4.42.54-8.82,1.23-13.26,1.67-2.04.2-4.07.54-6.11.79-.44.05-.91,0-1.36-.01.15-.43.3-.86.44-1.28,1.81-.12,3.64-.12,5.43-.38,1.79-.26,3.44-1.01,5.13-1.59,2.59-.89,5-2.11,7.47-3.21,1.69-.75,3.31-.64,4.97-.09,2.42.81,4.82,1.7,7.25,2.49.94.3,1.93.21,2.87-.13.87-.32,1.75-.62,2.72-.59,1.1.74,2.16,1.51,2.95,2.54h-.01Z"/>
    <path class="cls-2" d="M45.85,44.2c-2.12.06-4.09.58-6.02,1.4-2.03.86-4.17,1.49-6.45.44-.65-.3-1.43-.2-2.09.26-1.24.87-2.5,1.74-3.75,2.6-2.18,1.51-4.33,3.12-7.12,3.67-.2.04-.41.02-.62.03.03-.48.53-.84.39-1.36v.03c.08-.05.17-.1.25-.15,2.4-.89,4.52-2.22,6.54-3.67.99-.71,1.86-1.54,2.79-2.3,1.27-1.04,2.57-2.06,3.9-3.03,1.35-.99,2.45-1.01,3.85-.3,2.1,1.07,4.34,1.07,6.56.41.66-.2,1.22-.71,1.82-1.08-.02,1.01-.05,2.02-.07,3.03l.02.02Z"/>
    <path class="cls-2" d="M49.93,52.49c-3.07.47-5.92-.25-8.77-1.24-1.91-.67-3.97-.71-6.02-.68-.96.02-1.71.51-2.51.9-3.29,1.61-6.57,3.24-10.28,3.98-1.34.27-2.69.37-4.06.21-.01-.14-.03-.28-.04-.42v.03c.08-.05.16-.1.24-.15,3.87-.08,7.1-1.55,10.08-3.69,1.04-.75,2.04-1.52,3.02-2.33,1.04-.85,2.22-.7,3.43-.4,1.4.34,2.8.45,4.25.19.63-.11,1.08-.4,1.54-.74.87-.64,1.84-1.09,2.93-1.4.75-.21,1.37.11,2.06.12,0,.29.05.57.02.86-.1.81.12,1.37.91,1.92,1.17.82,2.15,1.87,3.21,2.83h-.01Z"/>
    <path class="cls-2" d="M70.79,53.6c-.93-.1-1.82-.33-2.69-.63-.08-.06-.15-.11-.23-.17v.02c.08-.65-.47-1.14-.52-1.76,1.08.28,2.04.8,3.04,1.23.13.44.26.88.4,1.32h0Z"/>
    <path class="cls-2" d="M74.1,60.72c-.83,0-1.67-.02-2.5-.02-.13-.37-.27-.74-.4-1.12.88,0,1.76.02,2.64.03.09.37.17.74.26,1.11Z"/>
    <path class="cls-2" d="M72.44,57.07c-.83-.01-1.66-.03-2.49-.04-.13-.31-.25-.62-.38-.92.89.19,1.83.09,2.68.43.06.18.12.35.19.53Z"/>
    <path class="cls-2" d="M72.62,63.06c.88.01,1.77.02,2.65.03.01.18.02.36.04.55-.83-.01-1.66-.02-2.49-.03-.06-.18-.13-.36-.19-.54h-.01Z"/>
    <path class="cls-2" d="M22.62,47.1c.04.12-.03.18-.15.2-.02-.11,0-.2.15-.2Z"/>
    <path class="cls-1" d="M65.8,66.04c2.75.04,5.5.08,8.26.11,1.53,3.49,3.06,6.99,4.64,10.58-1.55-.77-2.51-2.02-3.72-2.99-2.96-2.39-5.78-4.91-8.67-7.38-.15-.13-.34-.22-.51-.32Z"/>
    <path class="cls-1" d="M64.84,46.29c-1.85-1.6-3.47-3.39-5.25-5.04-1.59-1.47-2.92-3.16-4.72-4.43-1.21-.85-2.56-1.3-4.09-1.14-.87.09-1.59.59-2.32,1-.71.4-1.27,1.01-2.08,1.27-.33-.25-.21-.59-.2-.9.22-8.55.37-17.11.75-25.66.07-1.65.25-3.33.39-5.1.45.46.52.97.7,1.43,1.11,2.84,2.46,5.6,3.68,8.4,1.53,3.5,3.09,7,4.68,10.48.84,1.85,1.54,3.74,2.43,5.57,1.7,3.48,3.2,7.03,4.74,10.57.39.9.9,1.77,1.26,2.7.1.26.46.56.04.86h-.01Z"/>
    <path class="cls-1" d="M67.36,51.05c.05.62.6,1.12.53,1.76-1.63-.3-3.17-.88-4.62-1.58-2.58-1.23-5.07-2.61-7.58-3.96-2.31-1.24-4.7-2.3-7.35-2.79-.82-.15-1.69.08-2.48-.29.02-1.01.05-2.02.07-3.03,1.38-.89,2.5-2.09,4.04-2.81,1.19-.56,2.19-.46,3.13.4,1.86,1.71,3.69,3.45,5.46,5.24,2.16,2.19,4.46,4.26,7.11,5.98.56.36,1.26.54,1.7,1.07h-.01Z"/>
    <path class="cls-1" d="M20.46,51.12c-.08.05-.17.1-.25.15-.06-.24.12-.16.25-.15Z"/>
    <path class="cls-1" d="M69.57,56.1c.13.31.25.62.38.92-1.69.2-3.25-.3-4.75-.89-2.7-1.08-5.36-2.24-8.04-3.36-1.14-.48-2.36-.49-3.57-.47-1.22.02-2.44.13-3.66.2-1.06-.95-2.04-2-3.21-2.83-.79-.55-1.01-1.12-.91-1.92.04-.28,0-.57-.02-.86,2.26-.16,4.3.56,6.28,1.41,2.79,1.2,5.46,2.62,8.12,4.04,2.96,1.58,6.05,2.93,9.37,3.77h.01Z"/>
    <path class="cls-1" d="M67.87,52.8c.08.06.15.11.23.17-.13,0-.28.03-.23-.17Z"/>
    <path class="cls-1" d="M18.49,55.12c-.08.05-.16.1-.24.15-.06-.23.12-.15.24-.15Z"/>
    <path class="cls-1" d="M71.2,59.58c.13.37.27.74.4,1.12-3.3.23-6.39-.68-9.49-1.52-2.18-.6-4.37-1.19-6.55-1.78-.8-1.03-1.86-1.8-2.95-2.54,1.52-.46,3-.25,4.4.37,2.69,1.19,5.39,2.38,8.17,3.38,1.93.69,3.94,1.02,6.02.98h0Z"/>
    <path class="cls-1" d="M72.62,63.06c.06.18.13.36.19.54-3.39.02-6.78-.01-10.16-.17-.55-.9-1.6-1.35-2.27-2.14,1.61.04,3.12.52,4.67.84,2.5.53,5.04.73,7.58.92h-.01Z"/>
    <path class="cls-1" d="M60.4,61.31c-.08-.06-.16-.12-.24-.17.13,0,.32-.07.24.17Z"/>
  </g>
</svg>