<?xml version="1.0" standalone="no"?>
<!DOCTYPE svg PUBLIC "-//W3C//DTD SVG 20010904//EN"
 "http://www.w3.org/TR/2001/REC-SVG-20010904/DTD/svg10.dtd">
<svg version="1.0" xmlns="http://www.w3.org/2000/svg"
 width="50pt" height="50pt" viewBox="0 0 512.000000 512.000000"
 preserveAspectRatio="xMidYMid meet">

<g transform="translate(0.000000,512.000000) scale(0.100000,-0.100000)"
fill="#163E73" stroke="none">
<path d="M2859 5041 c-107 -44 -295 -136 -361 -177 -170 -107 -217 -202 -225
-460 -3 -83 -2 -186 2 -229 l7 -78 34 54 c55 88 128 237 169 342 30 80 43 102
69 118 67 41 151 10 176 -66 9 -28 7 -45 -15 -112 -32 -95 -127 -295 -183
-383 -23 -35 -39 -66 -37 -68 10 -10 107 22 193 64 163 79 271 203 307 355 18
78 19 157 3 354 -8 111 -8 169 0 225 17 115 7 120 -139 61z"/>
<path d="M2579 4523 c-78 -209 -97 -246 -211 -436 -142 -234 -190 -349 -233
-561 -6 -28 -7 -27 -41 30 -107 178 -321 396 -525 535 -62 42 -78 46 -97 27
-26 -26 -9 -47 101 -129 154 -114 336 -298 420 -424 103 -156 119 -198 128
-342 24 -383 175 -711 479 -1035 76 -82 109 -97 130 -59 5 11 10 23 10 26 0 4
-40 48 -88 98 -49 51 -114 127 -146 169 l-58 78 55 112 c63 128 142 239 248
348 81 83 225 205 306 260 59 39 67 53 53 81 -18 33 -52 21 -153 -54 -243
-182 -446 -413 -527 -600 -14 -31 -28 -57 -32 -57 -12 0 -97 186 -132 290 -55
165 -69 266 -63 465 7 265 46 387 204 652 127 211 146 246 191 353 59 140 66
168 52 185 -21 25 -59 18 -71 -12z"/>
<path d="M1091 4423 c-12 -23 20 -179 75 -363 88 -292 170 -380 412 -444 93
-25 280 -52 303 -44 15 5 -85 122 -177 207 -38 35 -120 102 -183 149 -129 97
-151 129 -132 193 13 44 50 76 97 85 25 5 44 0 78 -19 61 -34 175 -121 271
-207 80 -72 245 -248 245 -262 0 -5 4 -8 9 -8 13 0 2 111 -20 208 -41 180
-138 316 -275 385 -81 41 -148 56 -344 77 -102 11 -210 27 -240 35 -96 28
-107 29 -119 8z"/>
<path d="M685 4060 c-26 -42 -30 -1298 -6 -1620 6 -76 5 -143 -2 -198 -22
-168 33 -322 163 -453 87 -87 263 -239 402 -346 112 -87 116 -94 146 -278 l18
-110 447 -3 447 -2 0 37 c0 20 -5 100 -11 177 -37 500 -139 814 -318 979 -32
28 -107 81 -167 116 -136 81 -215 155 -306 290 -94 138 -162 224 -232 290
l-57 53 -79 -4 c-60 -2 -85 -8 -107 -24 -73 -54 -97 -137 -69 -238 35 -123
122 -235 296 -376 184 -150 264 -252 367 -467 60 -123 61 -145 12 -151 -22 -3
-30 9 -81 115 -97 202 -160 285 -323 420 -179 149 -253 231 -306 335 -85 168
-72 311 36 406 52 46 100 62 184 62 33 0 61 4 61 9 0 26 -193 788 -206 813
-29 56 -98 120 -159 149 -61 29 -138 39 -150 19z"/>
<path d="M4285 4042 c-72 -35 -145 -109 -169 -172 -17 -47 -197 -772 -192
-777 1 -2 27 2 57 7 204 38 365 -132 319 -337 -32 -144 -132 -280 -324 -438
-185 -152 -243 -225 -351 -440 -46 -93 -65 -121 -82 -123 -14 -2 -26 4 -33 18
-10 18 -3 38 43 135 104 214 181 313 372 470 165 136 245 235 287 354 39 111
5 226 -79 267 -58 29 -157 25 -208 -8 -66 -41 -185 -177 -283 -320 -112 -164
-184 -235 -326 -319 -60 -35 -134 -86 -164 -113 -191 -175 -299 -523 -328
-1064 l-7 -132 449 2 448 3 18 110 c31 189 30 188 176 302 162 128 380 320
419 369 89 112 133 265 116 399 -8 56 -8 125 0 230 13 186 14 1492 1 1555 -9
45 -10 45 -54 48 -33 2 -61 -5 -105 -26z"/>
<path d="M3429 3625 c-14 -14 -143 -37 -279 -50 -85 -8 -188 -22 -228 -31
-255 -55 -408 -258 -437 -579 l-6 -70 42 50 c172 204 477 455 551 455 66 0
118 -50 118 -113 0 -54 -21 -88 -77 -124 -94 -62 -212 -164 -322 -279 -61 -64
-109 -119 -107 -122 3 -2 51 1 107 8 219 25 402 91 474 171 49 55 106 177 150
322 44 147 81 327 72 350 -6 15 -47 24 -58 12z"/>
<path d="M1398 969 c-12 -7 -18 -22 -18 -49 l0 -40 495 0 495 0 0 40 c0 29 -5
42 -19 50 -27 14 -929 13 -953 -1z"/>
<path d="M2782 964 c-17 -12 -22 -24 -20 -47 l3 -32 498 -3 497 -2 0 32 c0 67
28 63 -487 66 -418 2 -470 1 -491 -14z"/>
<path d="M1388 802 c-75 -2 -89 -6 -98 -22 -7 -13 -10 -139 -8 -370 3 -299 5
-352 18 -360 9 -6 243 -10 582 -10 551 0 568 1 578 19 6 13 10 147 10 369 0
290 -2 352 -14 361 -11 9 -144 13 -498 14 -266 1 -522 1 -570 -1z"/>
<path d="M2780 802 c-60 -2 -97 -7 -102 -15 -14 -21 -10 -721 4 -735 17 -17
1139 -17 1156 0 19 19 17 737 -2 744 -15 6 -901 11 -1056 6z"/>
</g>
</svg>
