<?xml version="1.0" standalone="no"?>
<!DOCTYPE svg PUBLIC "-//W3C//DTD SVG 20010904//EN"
 "http://www.w3.org/TR/2001/REC-SVG-20010904/DTD/svg10.dtd">
<svg version="1.0" xmlns="http://www.w3.org/2000/svg"
 width="50pt" height="50pt" viewBox="0 0 500.000000 500.000000"
 preserveAspectRatio="xMidYMid meet">

<g transform="translate(0.000000,612.000000) scale(0.100000,-0.100000)"
fill="#163E73" stroke="none">
<path d="M2823 5580 c-36 -20 -55 -39 -59 -57 -4 -15 12 -133 40 -289 51 -288
50 -304 -6 -323 -31 -11 -66 -2 -85 20 -6 8 -29 120 -52 249 -23 129 -43 236
-45 238 -7 6 -70 -30 -136 -78 -73 -54 -167 -149 -223 -227 -90 -124 -159
-318 -173 -485 l-7 -78 -33 0 c-79 0 -135 -54 -141 -134 -5 -58 17 -102 64
-133 26 -17 82 -18 1093 -18 1011 0 1067 1 1093 18 90 59 88 201 -4 247 -21
11 -54 20 -74 20 -34 0 -35 1 -35 38 0 59 -26 201 -50 271 -26 77 -77 181
-122 247 -48 71 -162 188 -232 238 -64 46 -125 80 -131 74 -2 -2 -22 -107 -45
-232 -22 -126 -45 -237 -51 -248 -15 -28 -57 -41 -90 -28 -53 22 -53 38 -4
316 25 140 45 265 45 277 0 26 -24 56 -65 83 -27 17 -52 19 -225 22 l-195 3
-52 -31z"/>
<path d="M2004 4075 c-4 -10 -2 -55 4 -100 19 -147 73 -269 132 -303 21 -12
38 -38 60 -92 98 -235 293 -491 463 -609 306 -210 631 -161 922 141 130 134
257 332 320 501 10 26 21 47 25 47 15 0 63 57 87 103 33 67 63 188 63 259 l0
58 -997 0 c-549 0 -1015 3 -1035 6 -30 5 -39 3 -44 -11z"/>
<path d="M2225 2809 c-49 -5 -139 -13 -200 -19 -139 -13 -261 -42 -341 -81
-188 -93 -340 -299 -450 -609 -45 -127 -52 -238 -20 -328 60 -175 332 -302
827 -386 l37 -6 4 58 c6 79 44 144 110 185 44 28 48 33 41 56 -16 50 -8 154
14 196 31 58 209 230 263 254 49 22 141 28 184 11 22 -8 27 -5 51 35 56 96
128 125 315 125 185 0 260 -30 316 -126 23 -39 28 -42 50 -34 44 17 141 12
188 -10 25 -13 85 -64 148 -128 87 -89 108 -116 123 -161 17 -52 17 -107 -1
-168 -5 -17 -1 -25 12 -30 72 -26 144 -131 144 -209 0 -24 4 -45 8 -48 4 -2
64 6 132 18 415 77 669 205 725 364 9 26 19 79 22 117 5 63 1 82 -36 197 -110
337 -285 562 -503 649 -79 31 -224 56 -398 69 -85 6 -164 13 -175 15 -16 3
-26 -4 -40 -30 -92 -172 -520 -282 -910 -234 -246 30 -463 127 -520 233 -11
20 -22 35 -25 35 -3 -1 -45 -6 -95 -10z"/>
<path d="M2912 2097 c-14 -14 -25 -47 -33 -93 l-11 -71 -51 -19 c-28 -10 -54
-20 -57 -22 -3 -1 -30 16 -60 38 -85 64 -105 59 -212 -48 -105 -105 -107 -116
-46 -203 40 -58 41 -61 29 -97 -24 -69 -35 -79 -97 -87 -111 -14 -124 -32
-124 -180 0 -145 13 -165 120 -180 68 -10 77 -14 83 -38 3 -12 11 -36 18 -54
12 -30 11 -34 -29 -91 -60 -86 -58 -98 41 -199 45 -47 92 -89 105 -94 27 -11
68 6 127 51 l40 30 57 -22 56 -22 12 -74 c18 -105 30 -112 180 -112 151 0 163
8 180 113 l12 73 56 22 56 22 57 -40 c88 -62 105 -58 211 48 104 104 106 115
48 199 -22 32 -40 65 -39 73 0 8 10 35 22 60 22 43 24 45 87 56 36 6 73 15 82
19 28 12 40 73 36 184 -3 97 -4 104 -30 126 -18 16 -47 26 -84 31 -65 8 -84
23 -103 81 -14 41 -13 42 28 103 22 34 41 74 41 87 0 18 -23 49 -77 105 -119
122 -131 125 -231 54 l-49 -35 -55 21 -56 22 -11 71 c-19 110 -27 115 -181
115 -118 0 -128 -1 -148 -23z m286 -493 c228 -111 244 -433 29 -562 -98 -58
-218 -62 -318 -11 -59 29 -133 119 -154 184 -84 269 192 512 443 389z"/>
</g>
</svg>
