<svg xmlns="http://www.w3.org/2000/svg" xmlns:xlink="http://www.w3.org/1999/xlink" width="100" zoomAndPan="magnify" viewBox="0 0 72 72" height="100" preserveAspectRatio="xMidYMid meet" version="1.0"><defs><clipPath id="9d68355009"><path d="M 4 55 L 66 55 L 66 68.785156 L 4 68.785156 Z M 4 55 " clip-rule="nonzero"/></clipPath><clipPath id="2fdfe74201"><path d="M 17 3.535156 L 54 3.535156 L 54 43 L 17 43 Z M 17 3.535156 " clip-rule="nonzero"/></clipPath></defs><g clip-path="url(#9d68355009)"><path fill="#9c9c9c" d="M 60.230469 55.804688 C 61.125 58.265625 62.320312 60.625 63.457031 63 C 63.558594 63.203125 63.640625 63.417969 63.734375 63.628906 C 64.257812 64.894531 64.714844 66.171875 65.414062 67.363281 C 65.578125 67.640625 65.742188 67.945312 65.695312 68.292969 L 65.703125 68.292969 C 64.589844 67.757812 63.78125 66.867188 62.894531 66.109375 C 60.765625 64.285156 58.628906 62.476562 56.480469 60.679688 C 56.117188 60.378906 55.976562 60.363281 55.695312 60.765625 C 54.863281 61.941406 53.910156 63.039062 52.820312 64.03125 C 51.972656 64.804688 50.851562 65.214844 49.8125 65.714844 C 46.21875 67.433594 42.285156 68.128906 38.328125 68.695312 C 37.046875 68.878906 35.753906 68.53125 34.457031 68.53125 C 30.570312 68.546875 26.792969 67.953125 23.175781 66.660156 C 21.230469 65.957031 19.40625 65.027344 17.6875 63.914062 C 16.351562 63.054688 15.152344 62.066406 14.015625 61.019531 C 13.480469 60.539062 13.148438 60.949219 12.84375 61.183594 C 12.152344 61.722656 11.5 62.289062 10.8125 62.824219 C 9.082031 64.175781 7.425781 65.601562 5.730469 66.992188 C 5.410156 67.261719 5.039062 67.480469 4.578125 67.65625 C 6.585938 63.496094 8.597656 59.339844 10.597656 55.179688 C 10.875 55.171875 11.148438 55.15625 11.421875 55.15625 C 22.941406 55.320312 34.457031 55.511719 45.980469 55.636719 C 47.875 55.660156 49.773438 55.550781 51.667969 55.683594 C 51.800781 55.769531 51.949219 55.84375 52.066406 55.9375 C 54.328125 57.886719 56.550781 59.875 58.875 61.761719 C 59.824219 62.527344 60.570312 63.511719 61.792969 64.121094 C 60.554688 61.277344 59.351562 58.523438 58.152344 55.769531 C 58.851562 55.78125 59.546875 55.796875 60.246094 55.804688 Z M 60.230469 55.804688 " fill-opacity="1" fill-rule="nonzero"/></g><g clip-path="url(#2fdfe74201)"><path fill="#9c9c9c" d="M 17.757812 40.738281 C 18.050781 39.476562 18.691406 38.339844 19.265625 37.179688 C 19.34375 37.023438 19.5 36.859375 19.585938 36.675781 C 20.6875 34.332031 21.738281 31.964844 22.894531 29.636719 C 24.296875 26.796875 25.625 23.917969 27.039062 21.078125 C 27.585938 19.964844 28.089844 18.835938 28.640625 17.722656 C 30.109375 14.765625 31.503906 11.78125 32.949219 8.824219 C 33.640625 7.410156 34.269531 5.972656 34.953125 4.554688 C 35.328125 3.78125 35.910156 3.386719 36.460938 3.671875 C 36.929688 3.914062 37.078125 4.453125 37.316406 4.886719 C 37.527344 5.289062 37.660156 5.730469 37.832031 6.15625 C 38.695312 8.324219 39.734375 10.433594 40.667969 12.570312 C 41.84375 15.261719 43.085938 17.9375 44.285156 20.621094 C 45.527344 23.371094 46.734375 26.132812 48.015625 28.871094 C 48.660156 30.253906 49.183594 31.683594 49.859375 33.046875 C 51.210938 35.785156 52.421875 38.570312 53.597656 41.371094 C 53.707031 41.625 54.054688 41.757812 53.964844 42.082031 C 52.828125 41.578125 51.824219 40.882812 50.898438 40.101562 C 51.226562 39.863281 50.945312 39.628906 50.867188 39.421875 C 50.589844 38.695312 50.191406 38.003906 49.875 37.292969 C 48.667969 34.5 47.488281 31.699219 46.15625 28.953125 C 45.457031 27.515625 44.914062 26.015625 44.246094 24.554688 C 43 21.8125 41.773438 19.050781 40.574219 16.289062 C 39.617188 14.078125 38.554688 11.898438 37.683594 9.660156 C 37.542969 9.304688 37.488281 8.894531 37.132812 8.53125 C 37.023438 9.933594 36.890625 11.261719 36.828125 12.554688 C 36.53125 19.300781 36.414062 26.054688 36.238281 32.800781 C 36.238281 33.046875 36.144531 33.316406 36.394531 33.511719 C 35.996094 33.773438 35.628906 34.089844 35.1875 34.269531 C 34.488281 34.554688 33.945312 35.183594 33.167969 35.207031 C 32.046875 35.25 30.949219 35.050781 29.902344 34.601562 C 28.882812 34.167969 27.769531 34.015625 26.707031 34.394531 C 25.820312 34.710938 25.074219 35.28125 24.34375 35.871094 C 22.765625 37.148438 21.207031 38.453125 19.53125 39.613281 C 18.976562 40.007812 18.480469 40.550781 17.734375 40.722656 Z M 17.757812 40.738281 " fill-opacity="1" fill-rule="nonzero"/></g><path fill="#13396f" d="M 17.757812 40.738281 C 18.503906 40.566406 18.992188 40.015625 19.554688 39.628906 C 21.230469 38.460938 22.796875 37.164062 24.367188 35.886719 C 25.089844 35.304688 25.835938 34.726562 26.730469 34.410156 C 27.792969 34.03125 28.90625 34.183594 29.925781 34.617188 C 30.980469 35.066406 32.070312 35.265625 33.191406 35.222656 C 33.96875 35.191406 34.519531 34.570312 35.210938 34.285156 C 35.652344 34.105469 36.019531 33.789062 36.421875 33.527344 C 37.054688 33.324219 37.496094 32.839844 38.054688 32.527344 C 38.625 32.195312 39.191406 31.808594 39.875 31.738281 C 41.066406 31.609375 42.136719 31.964844 43.085938 32.636719 C 44.5 33.644531 45.542969 34.980469 46.789062 36.132812 C 48.1875 37.433594 49.460938 38.847656 50.914062 40.109375 C 51.839844 40.898438 52.835938 41.585938 53.980469 42.089844 C 55.082031 43.019531 56.472656 43.382812 57.867188 43.484375 C 62.296875 43.800781 66.738281 43.832031 71.175781 43.839844 C 72.335938 43.839844 71.875 44.503906 71.96875 44.976562 C 72.09375 45.632812 71.710938 45.679688 71.128906 45.671875 C 66.960938 45.585938 62.796875 45.507812 58.628906 45.480469 C 57.445312 45.480469 56.382812 45.078125 55.277344 44.835938 C 54.484375 44.496094 53.730469 44.09375 52.890625 43.863281 C 52.546875 43.445312 52.003906 43.304688 51.554688 43.019531 C 49.476562 41.664062 47.671875 40.03125 45.972656 38.300781 C 44.585938 36.890625 43.148438 35.515625 41.6875 34.167969 C 40.949219 33.488281 40.164062 33.410156 39.230469 33.851562 C 38.023438 34.417969 37.140625 35.359375 36.058594 36.070312 C 35.585938 36.359375 35.148438 36.761719 34.628906 36.921875 C 32.886719 37.441406 31.128906 37.441406 29.480469 36.597656 C 28.378906 36.039062 27.507812 36.054688 26.457031 36.835938 C 25.414062 37.597656 24.402344 38.40625 23.394531 39.226562 C 22.664062 39.824219 21.980469 40.480469 21.207031 41.039062 C 19.621094 42.183594 17.953125 43.226562 16.070312 43.9375 C 15.976562 43.9375 15.828125 43.863281 15.875 44.054688 L 15.875 44.03125 C 11.070312 44.582031 6.257812 44.0625 1.453125 44.140625 C 0.777344 44.140625 0.636719 43.953125 0.675781 43.375 C 0.753906 42.175781 0.714844 42.175781 2.058594 42.191406 C 5.777344 42.246094 9.5 42.292969 13.230469 42.382812 C 14.445312 42.414062 15.558594 42.191406 16.550781 41.535156 C 16.902344 41.300781 17.398438 41.292969 17.648438 40.921875 C 17.75 40.90625 17.796875 40.859375 17.765625 40.761719 L 17.765625 40.738281 Z M 17.757812 40.738281 " fill-opacity="1" fill-rule="nonzero"/><path fill="#13396f" d="M 55.574219 45.867188 C 56.667969 46.238281 57.8125 46.367188 58.960938 46.390625 C 63.011719 46.476562 67.070312 46.539062 71.128906 46.578125 C 71.789062 46.578125 72.03125 46.699219 71.992188 47.351562 C 71.914062 48.542969 71.960938 48.542969 70.679688 48.527344 C 66.675781 48.464844 62.679688 48.386719 58.675781 48.355469 C 58.011719 48.355469 57.382812 48.117188 56.722656 48.1875 C 56.046875 47.921875 55.308594 48 54.617188 47.847656 C 52.003906 47.1875 49.585938 46.128906 47.261719 44.875 C 45.171875 43.753906 43.078125 42.632812 40.886719 41.6875 C 39.332031 41.015625 37.730469 40.449219 35.957031 40.574219 C 35.421875 40.574219 34.929688 40.3125 34.339844 40.480469 C 33.484375 40.722656 32.730469 41.070312 32.039062 41.585938 C 31.679688 41.851562 31.332031 42.082031 30.832031 42.167969 C 29.691406 42.375 28.59375 42.285156 27.492188 42.019531 C 26.542969 41.78125 25.609375 41.664062 24.800781 42.332031 C 24.03125 42.964844 23.246094 43.582031 22.429688 44.171875 C 20.089844 45.851562 17.554688 47.019531 14.515625 47.082031 C 14.421875 47.082031 14.28125 47.019531 14.328125 47.203125 L 14.328125 47.179688 C 10.042969 47.117188 5.746094 47.035156 1.453125 47.003906 C 0.769531 47.003906 0.574219 46.847656 0.605469 46.207031 C 0.683594 44.914062 0.636719 44.914062 2.082031 44.9375 C 6.164062 45.007812 10.238281 45.078125 14.320312 45.152344 C 14.726562 45.152344 15.144531 45.207031 15.550781 45.085938 C 15.71875 45.085938 15.882812 45.09375 16.039062 45.0625 C 18.230469 44.628906 19.917969 43.359375 21.628906 42.167969 C 22.609375 41.480469 23.589844 40.804688 24.574219 40.117188 C 25.082031 39.753906 25.695312 39.675781 26.214844 39.910156 C 28.003906 40.730469 29.683594 40.242188 31.277344 39.5625 C 32.800781 38.917969 34.339844 38.507812 36.003906 38.460938 C 36.625 38.75 37.308594 38.570312 37.949219 38.6875 C 40.03125 39.074219 41.90625 39.910156 43.722656 40.890625 C 45.691406 41.957031 47.648438 43.042969 49.671875 44.015625 C 50.8125 44.558594 52.019531 45.023438 53.300781 45.261719 L 53.300781 45.246094 C 53.253906 45.402344 53.371094 45.378906 53.472656 45.378906 C 54.15625 45.625 54.863281 45.796875 55.582031 45.875 L 55.574219 45.875 Z M 55.574219 45.867188 " fill-opacity="1" fill-rule="nonzero"/><path fill="#13396f" d="M 13.164062 49.625 C 9.804688 49.648438 6.445312 49.679688 3.09375 49.703125 C 2.238281 49.703125 1.382812 49.679688 0.527344 49.703125 C 0.125 49.710938 -0.0390625 49.585938 0.0078125 49.230469 L 0.0078125 49.082031 C 0.0078125 47.296875 0.0078125 47.289062 1.960938 47.328125 C 5.933594 47.40625 9.898438 47.488281 13.871094 47.558594 C 14.039062 47.558594 14.203125 47.527344 14.359375 47.503906 C 15.433594 47.628906 16.496094 47.542969 17.546875 47.335938 C 20.453125 46.753906 23.035156 45.464844 25.617188 44.195312 C 26.246094 43.886719 26.835938 43.5 27.585938 43.484375 C 29.1875 43.453125 30.816406 43.484375 32.3125 44.023438 C 34.550781 44.804688 36.78125 45.371094 39.199219 45.007812 C 40.15625 44.953125 41.113281 44.867188 42.074219 44.851562 C 43.023438 44.835938 43.980469 44.851562 44.875 45.222656 C 46.980469 46.113281 49.066406 47.027344 51.1875 47.871094 C 52.363281 48.347656 53.582031 48.742188 54.917969 48.574219 C 55.566406 48.582031 56.21875 48.597656 56.871094 48.605469 C 61.386719 48.6875 65.898438 48.789062 70.421875 48.828125 C 71.246094 48.828125 71.519531 49 71.441406 49.78125 C 71.339844 50.800781 71.410156 50.800781 70.28125 50.785156 C 66.175781 50.722656 62.078125 50.667969 57.96875 50.609375 C 57.28125 50.609375 56.589844 50.59375 55.898438 50.585938 C 54.265625 50.625 52.679688 50.359375 51.171875 49.8125 C 48.980469 49.023438 46.871094 48.085938 44.757812 47.148438 C 43.660156 46.65625 42.496094 46.492188 41.304688 46.855469 C 40.542969 46.832031 39.851562 47.066406 39.167969 47.320312 C 38.429688 47.597656 37.652344 47.667969 36.914062 47.421875 C 35.007812 46.800781 33.128906 46.097656 31.222656 45.457031 C 29.917969 45.023438 28.65625 44.929688 27.320312 45.53125 C 25.382812 46.398438 23.488281 47.359375 21.457031 48.0625 C 20.128906 48.519531 18.828125 49.113281 17.429688 49.316406 C 16.023438 49.523438 14.585938 49.523438 13.164062 49.617188 Z M 13.164062 49.625 " fill-opacity="1" fill-rule="nonzero"/><path fill="#13396f" d="M 60.230469 55.804688 C 59.53125 55.796875 58.835938 55.78125 58.136719 55.769531 C 55.976562 55.738281 53.816406 55.707031 51.652344 55.683594 C 49.757812 55.550781 47.859375 55.660156 45.964844 55.636719 C 34.449219 55.511719 22.933594 55.320312 11.40625 55.15625 C 11.132812 55.15625 10.859375 55.171875 10.582031 55.179688 C 7.496094 55.117188 4.414062 55.039062 1.328125 55.007812 C 0.636719 55.007812 0.449219 54.832031 0.480469 54.203125 C 0.550781 52.890625 0.511719 52.898438 1.921875 52.921875 C 5.207031 52.96875 8.480469 52.992188 11.761719 53.035156 C 12.003906 53.058594 12.253906 53.089844 12.5 53.089844 C 24.179688 53.277344 35.855469 53.476562 47.535156 53.65625 C 48.085938 53.664062 48.636719 53.632812 49.183594 53.617188 C 51.847656 53.742188 54.5 53.765625 57.160156 53.75 C 57.8125 53.757812 58.464844 53.765625 59.117188 53.773438 C 62.445312 53.839844 65.773438 53.910156 69.101562 53.972656 C 69.488281 53.972656 69.871094 53.972656 70.257812 53.988281 C 71.542969 54.027344 71.292969 53.855469 71.371094 54.980469 C 71.425781 55.769531 71.160156 55.960938 70.296875 55.9375 C 66.945312 55.84375 63.582031 55.828125 60.230469 55.789062 Z M 60.230469 55.804688 " fill-opacity="1" fill-rule="nonzero"/><path fill="#13396f" d="M 58.175781 51.488281 C 62.085938 51.558594 65.992188 51.636719 69.902344 51.707031 C 71.425781 51.738281 71.402344 51.730469 71.402344 53.097656 C 71.402344 53.585938 71.230469 53.679688 70.734375 53.664062 C 66.914062 53.546875 63.089844 53.445312 59.265625 53.332031 C 59.210938 53.332031 59.15625 53.339844 59.101562 53.347656 C 58.410156 53.339844 57.710938 53.332031 57.019531 53.324219 C 55.027344 53.175781 53.03125 53.007812 51.070312 52.597656 C 49.859375 52.347656 48.667969 51.960938 47.402344 51.9375 L 47.417969 51.953125 C 47.480469 51.761719 47.324219 51.816406 47.222656 51.816406 C 46.585938 51.660156 45.957031 51.503906 45.324219 51.351562 C 41.914062 50.5625 38.507812 49.828125 34.945312 50.199219 C 32.171875 50.492188 29.386719 50.707031 26.621094 51.019531 C 21.738281 51.582031 16.910156 52.542969 11.949219 52.480469 C 8.425781 52.363281 4.90625 52.230469 1.382812 52.148438 C 0.707031 52.132812 0.417969 52 0.542969 51.359375 C 0.574219 51.210938 0.574219 51.054688 0.542969 50.910156 C 0.457031 50.335938 0.660156 50.136719 1.335938 50.175781 C 4.6875 50.359375 8.039062 50.492188 11.398438 50.632812 C 11.863281 50.660156 12.332031 50.632812 12.804688 50.632812 C 13.15625 50.632812 13.527344 50.691406 13.871094 50.644531 C 15.472656 50.445312 17.066406 50.175781 18.667969 50.019531 C 22.15625 49.671875 25.609375 49.128906 29.078125 48.703125 C 30.273438 48.558594 31.472656 48.265625 32.660156 48.300781 C 36.308594 48.394531 39.992188 48.0625 43.59375 48.859375 C 45.308594 49.324219 47.027344 49.789062 48.738281 50.265625 C 51.171875 50.933594 53.597656 51.644531 56.1875 51.464844 C 56.839844 51.464844 57.5 51.480469 58.152344 51.480469 L 58.167969 51.480469 Z M 58.175781 51.488281 " fill-opacity="1" fill-rule="nonzero"/><path fill="#9c9c9c" d="M 11.949219 52.480469 C 16.902344 52.542969 21.738281 51.582031 26.621094 51.019531 C 29.394531 50.707031 32.171875 50.492188 34.945312 50.199219 C 38.5 49.828125 41.914062 50.554688 45.324219 51.351562 C 45.957031 51.503906 46.59375 51.660156 47.222656 51.816406 C 47.285156 51.867188 47.347656 51.90625 47.410156 51.953125 L 47.394531 51.9375 C 47.921875 52.558594 48.746094 52.921875 49.175781 53.625 C 48.628906 53.640625 48.078125 53.671875 47.527344 53.664062 C 35.847656 53.476562 24.171875 53.285156 12.492188 53.097656 C 12.246094 53.097656 11.996094 53.058594 11.753906 53.042969 C 11.722656 52.828125 11.824219 52.65625 11.941406 52.480469 Z M 11.949219 52.480469 " fill-opacity="1" fill-rule="nonzero"/><path fill="#9c9c9c" d="M 43.613281 48.867188 C 40 48.070312 36.324219 48.402344 32.675781 48.308594 C 31.488281 48.277344 30.289062 48.558594 29.09375 48.710938 C 25.625 49.136719 22.171875 49.679688 18.683594 50.027344 C 17.082031 50.183594 15.488281 50.453125 13.886719 50.652344 C 13.542969 50.691406 13.171875 50.652344 12.820312 50.644531 C 12.9375 50.304688 13.054688 49.964844 13.164062 49.632812 C 14.585938 49.539062 16.023438 49.539062 17.429688 49.332031 C 18.835938 49.128906 20.128906 48.535156 21.457031 48.078125 C 23.488281 47.375 25.382812 46.414062 27.320312 45.546875 C 28.648438 44.953125 29.917969 45.039062 31.222656 45.472656 C 33.121094 46.113281 35.007812 46.816406 36.914062 47.4375 C 37.652344 47.675781 38.429688 47.605469 39.167969 47.335938 C 39.851562 47.082031 40.542969 46.847656 41.304688 46.871094 C 42.167969 47.453125 43 48.0625 43.621094 48.875 L 43.613281 48.875 Z M 43.613281 48.867188 " fill-opacity="1" fill-rule="nonzero"/><path fill="#9c9c9c" d="M 35.996094 38.453125 C 34.332031 38.5 32.785156 38.910156 31.269531 39.554688 C 29.675781 40.234375 27.996094 40.730469 26.207031 39.902344 C 25.695312 39.667969 25.082031 39.746094 24.566406 40.109375 C 23.589844 40.796875 22.601562 41.480469 21.621094 42.160156 C 19.910156 43.351562 18.222656 44.621094 16.03125 45.054688 C 15.875 45.085938 15.710938 45.070312 15.542969 45.078125 C 15.566406 44.699219 15.960938 44.417969 15.851562 44.007812 L 15.851562 44.03125 C 15.914062 43.992188 15.984375 43.953125 16.046875 43.910156 C 17.929688 43.210938 19.59375 42.160156 21.179688 41.015625 C 21.957031 40.457031 22.640625 39.800781 23.371094 39.203125 C 24.367188 38.378906 25.390625 37.574219 26.433594 36.808594 C 27.492188 36.03125 28.355469 36.011719 29.457031 36.574219 C 31.105469 37.417969 32.863281 37.417969 34.605469 36.898438 C 35.125 36.738281 35.5625 36.335938 36.035156 36.046875 C 36.019531 36.84375 35.996094 37.640625 35.980469 38.4375 Z M 35.996094 38.453125 " fill-opacity="1" fill-rule="nonzero"/><path fill="#9c9c9c" d="M 39.199219 44.992188 C 36.789062 45.363281 34.550781 44.796875 32.3125 44.015625 C 30.816406 43.484375 29.195312 43.453125 27.585938 43.476562 C 26.835938 43.492188 26.246094 43.878906 25.617188 44.1875 C 23.035156 45.457031 20.460938 46.746094 17.546875 47.328125 C 16.496094 47.542969 15.433594 47.621094 14.359375 47.496094 C 14.351562 47.382812 14.335938 47.273438 14.328125 47.164062 L 14.328125 47.1875 C 14.390625 47.148438 14.453125 47.109375 14.515625 47.066406 C 17.554688 47.003906 20.089844 45.84375 22.429688 44.15625 C 23.246094 43.566406 24.03125 42.957031 24.800781 42.316406 C 25.617188 41.648438 26.542969 41.765625 27.492188 42.003906 C 28.59375 42.269531 29.691406 42.359375 30.832031 42.152344 C 31.324219 42.066406 31.679688 41.835938 32.039062 41.570312 C 32.722656 41.0625 33.484375 40.707031 34.339844 40.464844 C 34.929688 40.296875 35.414062 40.550781 35.957031 40.558594 C 35.957031 40.789062 35.996094 41.007812 35.972656 41.238281 C 35.894531 41.875 36.066406 42.316406 36.6875 42.753906 C 37.605469 43.398438 38.375 44.226562 39.207031 44.984375 L 39.199219 44.984375 Z M 39.199219 44.992188 " fill-opacity="1" fill-rule="nonzero"/><path fill="#9c9c9c" d="M 55.574219 45.867188 C 54.847656 45.789062 54.148438 45.609375 53.464844 45.371094 C 53.402344 45.324219 53.347656 45.285156 53.285156 45.238281 L 53.285156 45.253906 C 53.347656 44.742188 52.914062 44.355469 52.875 43.863281 C 53.722656 44.085938 54.476562 44.496094 55.261719 44.835938 C 55.363281 45.183594 55.464844 45.53125 55.574219 45.875 Z M 55.574219 45.867188 " fill-opacity="1" fill-rule="nonzero"/><path fill="#9c9c9c" d="M 58.175781 51.488281 C 57.523438 51.488281 56.863281 51.472656 56.210938 51.472656 C 56.109375 51.179688 56 50.886719 55.898438 50.585938 C 56.589844 50.585938 57.28125 50.601562 57.96875 50.609375 C 58.042969 50.902344 58.105469 51.195312 58.175781 51.488281 Z M 58.175781 51.488281 " fill-opacity="1" fill-rule="nonzero"/><path fill="#9c9c9c" d="M 56.871094 48.605469 C 56.21875 48.597656 55.566406 48.582031 54.917969 48.574219 C 54.816406 48.332031 54.71875 48.085938 54.617188 47.847656 C 55.316406 48 56.054688 47.921875 56.722656 48.1875 C 56.769531 48.332031 56.816406 48.464844 56.871094 48.605469 Z M 56.871094 48.605469 " fill-opacity="1" fill-rule="nonzero"/><path fill="#9c9c9c" d="M 57.011719 53.332031 C 57.703125 53.339844 58.402344 53.347656 59.09375 53.355469 C 59.101562 53.5 59.109375 53.640625 59.125 53.789062 C 58.472656 53.78125 57.820312 53.773438 57.167969 53.765625 C 57.121094 53.625 57.066406 53.484375 57.019531 53.339844 L 57.011719 53.339844 Z M 57.011719 53.332031 " fill-opacity="1" fill-rule="nonzero"/><path fill="#9c9c9c" d="M 17.757812 40.738281 C 17.789062 40.835938 17.734375 40.882812 17.640625 40.898438 C 17.625 40.8125 17.640625 40.738281 17.757812 40.738281 Z M 17.757812 40.738281 " fill-opacity="1" fill-rule="nonzero"/><path fill="#fefefe" d="M 51.660156 55.683594 C 53.816406 55.714844 55.976562 55.746094 58.144531 55.769531 C 59.34375 58.523438 60.546875 61.285156 61.785156 64.121094 C 60.570312 63.511719 59.816406 62.527344 58.867188 61.761719 C 56.542969 59.875 54.328125 57.886719 52.058594 55.9375 C 51.941406 55.835938 51.792969 55.761719 51.660156 55.683594 Z M 51.660156 55.683594 " fill-opacity="1" fill-rule="nonzero"/><path fill="#fefefe" d="M 50.90625 40.101562 C 49.453125 38.839844 48.179688 37.425781 46.78125 36.125 C 45.535156 34.964844 44.492188 33.628906 43.078125 32.628906 C 42.128906 31.957031 41.066406 31.601562 39.867188 31.730469 C 39.183594 31.800781 38.617188 32.195312 38.046875 32.519531 C 37.488281 32.832031 37.046875 33.316406 36.414062 33.519531 C 36.152344 33.324219 36.246094 33.054688 36.253906 32.808594 C 36.429688 26.0625 36.546875 19.308594 36.84375 12.5625 C 36.898438 11.261719 37.039062 9.933594 37.148438 8.539062 C 37.503906 8.902344 37.558594 9.304688 37.699219 9.667969 C 38.570312 11.90625 39.632812 14.085938 40.589844 16.296875 C 41.789062 19.058594 43.015625 21.820312 44.261719 24.5625 C 44.921875 26.023438 45.472656 27.515625 46.171875 28.960938 C 47.503906 31.707031 48.683594 34.507812 49.890625 37.300781 C 50.199219 38.011719 50.597656 38.695312 50.882812 39.429688 C 50.960938 39.636719 51.242188 39.871094 50.914062 40.109375 L 50.90625 40.109375 Z M 50.90625 40.101562 " fill-opacity="1" fill-rule="nonzero"/><path fill="#fefefe" d="M 52.882812 43.855469 C 52.921875 44.347656 53.355469 44.742188 53.300781 45.246094 C 52.019531 45.007812 50.8125 44.550781 49.671875 44 C 47.648438 43.027344 45.691406 41.9375 43.722656 40.875 C 41.90625 39.894531 40.03125 39.058594 37.949219 38.671875 C 37.308594 38.554688 36.625 38.734375 36.003906 38.445312 C 36.019531 37.648438 36.042969 36.851562 36.058594 36.054688 C 37.140625 35.351562 38.023438 34.402344 39.230469 33.835938 C 40.164062 33.394531 40.949219 33.472656 41.6875 34.152344 C 43.148438 35.5 44.585938 36.875 45.972656 38.285156 C 47.671875 40.015625 49.476562 41.648438 51.554688 43.003906 C 51.996094 43.289062 52.546875 43.429688 52.890625 43.847656 L 52.882812 43.847656 Z M 52.882812 43.855469 " fill-opacity="1" fill-rule="nonzero"/><path fill="#fefefe" d="M 16.0625 43.910156 C 16 43.953125 15.929688 43.992188 15.867188 44.03125 C 15.820312 43.839844 15.960938 43.902344 16.0625 43.910156 Z M 16.0625 43.910156 " fill-opacity="1" fill-rule="nonzero"/><path fill="#fefefe" d="M 54.617188 47.839844 C 54.71875 48.085938 54.816406 48.332031 54.917969 48.566406 C 53.589844 48.726562 52.363281 48.332031 51.1875 47.863281 C 49.066406 47.011719 46.980469 46.097656 44.875 45.214844 C 43.980469 44.835938 43.023438 44.828125 42.074219 44.84375 C 41.113281 44.859375 40.15625 44.945312 39.199219 45 C 38.367188 44.25 37.597656 43.421875 36.679688 42.769531 C 36.058594 42.332031 35.886719 41.882812 35.964844 41.253906 C 35.996094 41.03125 35.964844 40.804688 35.949219 40.574219 C 37.722656 40.449219 39.324219 41.015625 40.878906 41.6875 C 43.070312 42.632812 45.164062 43.753906 47.253906 44.875 C 49.578125 46.121094 52.003906 47.1875 54.609375 47.847656 L 54.617188 47.847656 Z M 54.617188 47.839844 " fill-opacity="1" fill-rule="nonzero"/><path fill="#fefefe" d="M 53.285156 45.238281 C 53.347656 45.285156 53.402344 45.324219 53.464844 45.371094 C 53.363281 45.371094 53.246094 45.394531 53.285156 45.238281 Z M 53.285156 45.238281 " fill-opacity="1" fill-rule="nonzero"/><path fill="#fefefe" d="M 14.515625 47.066406 C 14.453125 47.109375 14.390625 47.148438 14.328125 47.1875 C 14.28125 47.003906 14.421875 47.066406 14.515625 47.066406 Z M 14.515625 47.066406 " fill-opacity="1" fill-rule="nonzero"/><path fill="#fefefe" d="M 55.898438 50.585938 C 56 50.878906 56.109375 51.171875 56.210938 51.472656 C 53.621094 51.652344 51.195312 50.933594 48.761719 50.273438 C 47.050781 49.796875 45.332031 49.332031 43.621094 48.867188 C 42.992188 48.054688 42.160156 47.445312 41.304688 46.863281 C 42.496094 46.5 43.660156 46.664062 44.757812 47.15625 C 46.871094 48.09375 48.988281 49.03125 51.171875 49.820312 C 52.6875 50.367188 54.265625 50.625 55.898438 50.59375 Z M 55.898438 50.585938 " fill-opacity="1" fill-rule="nonzero"/><path fill="#fefefe" d="M 57.011719 53.332031 C 57.058594 53.476562 57.113281 53.617188 57.160156 53.757812 C 54.5 53.773438 51.839844 53.75 49.183594 53.625 C 48.753906 52.914062 47.929688 52.558594 47.402344 51.9375 C 48.667969 51.96875 49.851562 52.347656 51.070312 52.597656 C 53.03125 53.019531 55.027344 53.175781 57.019531 53.324219 L 57.011719 53.324219 Z M 57.011719 53.332031 " fill-opacity="1" fill-rule="nonzero"/><path fill="#fefefe" d="M 47.417969 51.953125 C 47.355469 51.90625 47.292969 51.859375 47.230469 51.816406 C 47.332031 51.816406 47.480469 51.761719 47.417969 51.953125 Z M 47.417969 51.953125 " fill-opacity="1" fill-rule="nonzero"/></svg>