<svg width="550" height="104" viewBox="0 0 550 104" fill="none" xmlns="http://www.w3.org/2000/svg">
<g clip-path="url(#clip0_311_6)">
<path d="M191.6 19.5C191.4 19.7 191.3 19.8 191.2 19.9C190 22 188.9 24.1 187.7 26.2C185.9 29.4 184.1 32.6 182.3 35.8C181.5 37.3 180.7 38.8 179.8 40.3C178 43.3 176.4 46.4 174.7 49.4C173.8 50.9 173.1 52.5 172.2 54C170.4 57 168.7 60 167.1 63.1C166.9 63.5 166.5 63.9 166.3 64.3C165.4 66.1 165.3 66.1 163.2 65.9C163 65.9 162.8 65.9 162.7 65.7C162.6 64.5 161.4 63.8 161 62.7C160.1 60.1 158.6 57.8 157.4 55.3C156.7 53.8 156 52.3 155.3 50.9C153.7 47.7 152.1 44.5 150.3 41.4C149.5 40 148.9 38.6 148.2 37.3C146.4 34 144.8 30.7 143.1 27.3C142.3 25.8 141.8 24.2 140.8 22.8C139.9 21.5 139.6 20 138.7 18.7C138.4 19.1 138.5 19.4 138.5 19.7C138.3 33.2 138.1 46.7 137.8 60.3C137.8 61.1 138 61.4 138.9 61.5C141.3 61.7 143.6 61.9 145.9 62.1C146.5 62.1 146.7 62.4 146.6 62.9C146.6 63.6 146.5 64.3 146.6 65C146.6 65.6 146.4 65.7 145.7 65.7C138.3 65.6 130.8 65.5 123.3 65.4C122.6 65.4 122.3 65.3 122.4 64.6C122.5 63.8 122.1 62.6 122.6 62.1C123.1 61.5 124.4 61.9 125.3 61.8C126.9 61.7 128.6 61.5 130.2 61.5C131.1 61.5 131.3 61.2 131.3 60.4C131.5 47.6 131.7 34.8 131.9 22C131.9 19.3 132 16.6 132 13.9C132 13.4 132 13.1 131.2 13.1C128.7 13 126.2 12.2 123.7 12.2H123.6C122.6 11.5 123.4 10.6 123.2 9.90001C123.1 9.50001 123.3 9.20001 123.8 9.30001C124.1 9.30001 124.4 9.30001 124.6 9.30001C132.4 9.40001 140.2 9.60001 148 9.60001C149.4 9.60001 150.1 10.1 150.6 11.1C151.6 13.5 153 15.7 154.1 18C155.8 21.5 157.7 24.9 159.5 28.4C160.3 29.8 160.9 31.3 161.7 32.7C163.4 35.8 165 39 166.6 42.1C167.3 43.3 167.8 44.6 168.6 45.9C169.3 45 169.9 44.1 170.5 43.2C171.7 41.1 172.9 39 174.1 36.9C175 35.3 175.8 33.6 176.7 31.9C178.4 29 180.2 26.1 181.8 23.2C182.5 21.9 183.2 20.6 183.9 19.3C185.5 16.5 187.1 13.6 188.7 10.8C188.9 10.4 189.2 10.2 189.8 10.2C198.4 10.3 206.9 10.5 215.5 10.6C216.1 10.6 216.3 10.8 216.3 11.3C216.2 12 216.5 12.9 216.1 13.4C215.7 14 214.7 13.6 214 13.7C212.1 13.9 210.3 14.3 208.4 14.3C207.9 14.3 207.7 14.5 207.7 14.9C207.7 15.1 207.7 15.2 207.7 15.4C207.5 30.8 207.2 46.1 207 61.4C207 62.3 207.3 62.5 208.2 62.6C210.4 62.8 212.7 63 214.9 63.2C215.5 63.2 215.6 63.5 215.6 63.9C215.6 64.2 215.6 64.4 215.5 64.7C215.4 66.1 214.7 66.8 213.1 66.8C203 66.6 193 66.5 182.9 66.4C182 66.4 181.7 66.2 181.8 65.4C181.9 64.6 181.6 63.5 182 63C182.4 62.5 183.6 62.8 184.5 62.8C186.4 62.7 188.2 62.5 190.1 62.4C190.6 62.4 190.8 62.2 190.8 61.8C190.8 61.7 190.8 61.6 190.8 61.5C191 47.8 191.2 34.1 191.4 20.3C191.5 20 191.5 19.8 191.6 19.5Z" fill="white"/>
<path d="M391.5 24.5C391.5 25 391.5 25.3 391.5 25.6C391.3 38.5 391.1 51.4 390.8 64.3C390.8 65.2 391 65.4 392 65.5C394.4 65.7 396.7 65.9 399 66.1C399.5 66.1 399.7 66.3 399.7 66.8C399.7 67.6 399.6 68.3 399.7 69.1C399.7 69.6 399.5 69.7 398.9 69.7C391.4 69.6 383.9 69.5 376.3 69.4C375.7 69.4 375.4 69.2 375.5 68.6C375.6 68 375.6 67.3 375.5 66.7C375.5 66 375.8 65.8 376.5 65.8C378.8 65.7 381 65.5 383.3 65.4C384 65.4 384.4 65.2 384.4 64.4C384.6 49 384.9 33.5 385.1 18.1C385.1 17.3 384.8 17.1 384 17.1C381.6 17 379.2 16.3 376.8 16.2C376.6 16.2 376.3 16.1 376.3 15.9C376.3 15.1 376.3 14.3 376.4 13.5C376.4 13.2 376.9 13.2 377.2 13.2C382.2 13.3 387.2 13.3 392.3 13.4C394.5 13.4 396.7 13.5 398.9 13.5C399.5 13.5 399.9 13.7 400.3 14.1C402.8 17.1 405.4 20.1 408 23C409.5 24.7 411.1 26.4 412.6 28.1C415 30.8 417.5 33.5 419.9 36.3C422.3 39 424.7 41.6 427.1 44.3C428.5 46 430.1 47.5 431.6 49.2C431.8 49 431.7 48.8 431.7 48.6C431.9 38.7 432 28.8 432.2 18.9C432.2 18.1 432 17.8 431.1 17.8C428.6 17.7 426.3 17 423.8 16.9C423.2 16.9 423.3 16.5 423.4 16.2C423.6 15.4 423 14.6 423.8 13.9C423.9 13.8 424.3 13.9 424.5 13.9C432 14 439.4 14.1 446.9 14.2C447.7 14.2 448 14.4 447.9 15.1C447.8 17 447.9 17 445.7 17.2C443.7 17.4 441.7 17.8 439.6 17.8C438.9 17.8 438.9 18.2 438.9 18.6C438.8 22.1 438.8 25.7 438.7 29.2C438.5 42.5 438.3 55.8 438.1 69.1C438.1 69.9 438 70.2 437 70.1C435.6 70 434.3 70 432.9 70C432.2 70 431.8 69.8 431.4 69.3C429.3 66.9 427.2 64.4 425 62C423.4 60.3 421.9 58.5 420.3 56.8C417.9 54.1 415.4 51.3 413 48.6C410.6 45.9 408.1 43.2 405.8 40.5C403.4 37.7 400.8 35.1 398.5 32.3C397 30.6 395.5 28.9 393.9 27.3C393.3 26.5 392.5 25.6 391.5 24.5Z" fill="white"/>
<path d="M355.6 43.4C360.5 43.5 365.4 43.6 370.3 43.6C371.1 43.6 371.5 43.8 371.4 44.6C371.3 45 371.4 45.4 371.4 45.8C371.4 46.5 371.1 46.9 370.3 47C368.9 47.2 367.6 47.4 366.2 47.5C364.8 47.6 364.7 47.8 364.7 49C364.6 54.2 364.5 59.5 364.5 64.7C364.5 65.6 364.4 66 363.2 66.3C358.6 67.3 354 68 349.3 68.6C344.4 69.2 339.4 69.6 334.4 69.5C331.2 69.4 327.9 69.2 324.8 68.4C321.1 67.6 317.4 66.6 314 65C313.4 64.7 312.9 64.3 312.4 64C310.7 62.9 308.8 62 307.2 60.6C307.1 60.5 306.9 60.4 306.8 60.3C305.5 58.6 303.9 57.1 302.7 55.3C301.5 53.5 301 51.6 300.2 49.7C297.8 43.6 298.6 37.4 300 31.3C300.5 29.2 301.7 27.2 303 25.3C304.1 23.8 305.2 22.3 306.4 20.8C307.2 19.8 308.2 19 309.4 18.5C309.9 18.3 310.2 17.9 310.6 17.6C312.7 16 315.2 15.1 317.7 14.2C320.5 13.1 323.4 12.6 326.4 12.1C328.4 11.8 330.3 12 332.3 11.8C338.5 11.3 344.6 11.8 350.6 12.8C354.5 13.5 358.4 14.5 362.3 15.3C362.8 15.4 362.9 15.6 362.9 16C362.8 19.9 362.8 23.9 362.7 27.8C362.7 28.3 362.6 28.5 362 28.4C361 28.3 360 28.3 358.9 28.3C358.2 28.3 358 28.1 357.9 27.5C357.8 25.7 357.4 23.9 357.3 22.1C357.2 20.7 355.9 20.2 354.8 19.7C348.6 16.9 342 15.9 335.1 16.1C331.9 16.2 328.9 17.1 326.1 18.3C323.7 19.4 322 21.1 320.4 23C319.3 24.3 318.7 25.7 318.1 27.2C315.1 34.8 314.9 42.7 316.8 50.5C317.8 54.6 320.1 58.5 324.1 61.2C327.5 63.4 331.3 64.6 335.5 64.8C339.5 65 343.4 64.7 347.2 63.9C348.1 63.7 348.4 63.3 348.4 62.5C348.4 57.6 348.5 52.8 348.6 47.9C348.6 47.4 348.4 47.2 347.9 47.2C345.5 47.1 343.1 46.4 340.7 46.3C340.2 46.3 340.1 46.1 340.1 45.7C340 43 340 43 343 43.1C347 43.3 351.3 43.4 355.6 43.4Z" fill="white"/>
<path d="M506.9 71.3C502.2 71.2 497.5 71.1 492.8 71.1C492.1 71.1 491.9 71 491.9 70.3C492 69.4 491.6 68.4 492.1 67.8C492.6 67.1 493.8 67.6 494.7 67.5C496.1 67.3 497.5 67.2 498.9 67.1C499.5 67.1 499.6 66.9 499.4 66.5C498.1 64.1 497.5 61.4 496.2 58.9C495.5 57.5 495.1 55.9 494.5 54.5C494 53.1 492.9 52.4 491.4 52.4C483.8 52.3 476.2 52.2 468.6 52C467.9 52 467.6 52.2 467.3 52.8C466.2 54.8 465.6 57.1 464.5 59.1C463.6 60.7 463.1 62.4 462.3 64.1C462 64.7 461.7 65.3 461.3 65.9C461.1 66.3 461.2 66.5 461.8 66.5C464.2 66.7 466.6 67 469 67.2C469.6 67.3 469.9 67.4 469.8 68C469.7 68.9 470.2 70.1 469.5 70.7C469 71.1 467.7 70.8 466.8 70.8C461.2 70.7 455.6 70.6 449.9 70.6C449.2 70.6 448.9 70.5 449 69.8C449.1 69.1 449.1 68.3 449 67.6C449 67.2 449.1 67.1 449.6 67C453.5 66.7 453.5 66.6 455 63.4C456.3 60.5 457.6 57.7 459.1 54.9C460 53.2 460.7 51.3 461.7 49.6C462.6 48 463.2 46.3 464.1 44.8C465.1 43.1 465.7 41.3 466.6 39.6C467.7 37.8 468.3 35.8 469.3 34.1C470.2 32.6 470.7 30.9 471.6 29.3C472.6 27.6 473.2 25.7 474.2 24C475.2 22.2 475.8 20.3 476.9 18.6C477.6 17.4 478.2 16.2 478.7 14.9C478.9 14.4 479.2 14.3 479.7 14.3C483.9 14.4 488.2 14.4 492.5 14.5C493.3 14.5 493.7 14.8 494.1 15.5C496 19.1 497.3 22.9 499 26.6C499.8 28.3 500.3 30 501.1 31.6C502.1 33.5 502.6 35.5 503.6 37.4C504.5 39.1 505 41 505.9 42.7C506.9 44.5 507.4 46.5 508.3 48.2C509.3 50 509.8 52 510.7 53.9C512.4 57.5 514 61.1 515.5 64.8C515.7 65.4 516.1 66.1 516.4 66.7C516.7 67.3 517.3 67.5 517.9 67.5C518.9 67.7 520 67.8 521 67.9C521.5 68 521.8 68.1 521.8 68.7C521.7 69.6 522.2 70.9 521.5 71.5C521 71.9 519.6 71.6 518.7 71.6C514.8 71.4 510.8 71.4 506.9 71.3ZM481.1 23.1C479.6 26.2 478.1 29.3 476.6 32.4C475.8 34.1 475 35.8 474.2 37.6C472.8 40.6 471.3 43.6 470 46.6C469.8 47.2 469.8 47.4 470.5 47.4C471.7 47.4 472.9 47.4 474.1 47.4C479.4 47.5 484.6 47.6 489.9 47.6C491.3 47.6 491.4 47.9 490.9 46.3C490.3 44.5 489.6 42.8 488.8 41.1C487.9 39.3 487.3 37.3 486.4 35.5C485.2 33 484.2 30.3 483.2 27.7C482.7 26 481.8 24.6 481.1 23.1Z" fill="white"/>
<path d="M270.4 63.3C269.9 62.8 269.7 62.4 269.6 61.9C268.5 58.6 266.9 55.4 265.7 52C265.4 51 264.8 50.1 264.5 49.1C264.3 48.5 263.9 48.6 263.4 48.6C259.3 48.5 255.2 48.5 251.1 48.4C247 48.3 243.1 48.3 239.1 48.2C238.4 48.2 238.1 48.4 237.9 48.9C236.6 52.1 235.3 55.3 233.8 58.5C233.3 59.7 232.8 60.8 232.2 62C231.9 62.6 232.1 62.8 232.8 62.9C235.1 63.1 237.4 63.3 239.7 63.5C240.3 63.5 240.5 63.7 240.5 64.2C240.4 65.1 240.8 66.3 240.3 66.9C239.8 67.5 238.5 67 237.5 67C232 66.9 226.5 66.8 220.9 66.8C220.1 66.8 219.9 66.6 219.9 65.9C220 65.1 219.7 64.1 220.1 63.5C220.5 62.9 221.7 63.3 222.5 63.2C224.3 63 225.2 62.1 225.9 60.6C227.5 57 229.1 53.4 231 49.9C231.8 48.4 232.4 46.8 233.2 45.3C235.1 41.6 236.8 37.8 238.6 34.1C239.4 32.6 240 31 240.8 29.5C242.7 25.8 244.4 22 246.2 18.3C246.8 17 247.5 15.7 248.1 14.3C248.6 13.2 249.4 12.2 249.8 11C249.9 10.6 250.2 10.5 250.6 10.5C255.1 10.6 259.7 10.6 264.2 10.7C264.6 10.7 264.8 10.8 265 11.2C266 13.7 267.1 16.2 268.2 18.7C269.8 22.4 271.4 26.2 273.1 29.9C273.7 31.2 274.2 32.5 274.8 33.8C275.8 36.1 276.7 38.5 277.8 40.8C278.6 42.7 279.2 44.6 280.2 46.5C281.2 48.3 281.7 50.2 282.6 52.1C284.3 55.6 285.9 59.1 287.2 62.7C287.4 63.3 287.9 63.6 288.6 63.7C289.8 63.9 291 64.1 292.2 64.3C292.8 64.4 293 64.6 292.9 65.1V65.2C292.9 66.1 293.2 67.3 292.7 67.8C292.2 68.4 290.8 67.9 289.9 67.9C281.3 67.8 272.7 67.6 264.1 67.5C263 67.5 262.7 67.2 262.8 66.3C262.9 64 262.9 64.1 265.4 63.9C266.7 63.7 268.4 63.5 270.4 63.3ZM240.4 43.6C247.7 43.7 254.8 43.8 262.1 43.9C261.5 42.4 261 41 260.3 39.6C259.4 37.7 258.8 35.7 257.9 33.8C256.9 31.5 256 29.2 255.1 26.8C254.2 24.5 253.1 22.3 252.2 20C252.1 19.8 252.1 19.5 251.9 19.5C250.3 21.6 249.7 24 248.4 26.2C247.3 28 246.7 29.9 245.8 31.8C244.4 34.6 243.2 37.4 242 40.2C241.5 41.4 240.7 42.4 240.4 43.6Z" fill="white"/>
<path d="M76.7001 77.8C77.8001 80.9 79.4001 83.9 80.8001 86.9C80.9001 87.2 81.0001 87.4 81.1001 87.7C81.8001 89.3 82.3001 90.9 83.2001 92.4C83.4001 92.7 83.6001 93.1 83.6001 93.6C82.2001 92.9 81.2001 91.8 80.0001 90.8C77.3001 88.5 74.6001 86.2 71.8001 83.9C71.3001 83.5 71.2001 83.5 70.8001 84C69.7001 85.5 68.5001 86.9 67.1001 88.1C66.0001 89.1 64.6001 89.6 63.3001 90.2C58.7001 92.4 53.7001 93.3 48.7001 94C47.1001 94.2 45.4001 93.8 43.8001 93.8C38.8001 93.8 34.0001 93.1 29.4001 91.4C26.9001 90.5 24.6001 89.3 22.4001 87.9C20.7001 86.8 19.2001 85.6 17.7001 84.2C17.0001 83.6 16.6001 84.1 16.2001 84.4C15.3001 85.1 14.5001 85.8 13.6001 86.5C11.4001 88.2 9.3001 90 7.1001 91.8C6.7001 92.1 6.2001 92.4 5.6001 92.6C8.2001 87.3 10.7001 82.1 13.3001 76.8C13.7001 76.8 14.0001 76.8 14.4001 76.8C29.1001 77 43.7001 77.2 58.4001 77.4C60.8001 77.4 63.2001 77.3 65.6001 77.5C65.8001 77.6 66.0001 77.7 66.1001 77.8C69.0001 80.3 71.8001 82.8 74.8001 85.2C76.0001 86.2 77.0001 87.4 78.5001 88.2C76.9001 84.6 75.4001 81.1 73.9001 77.6C75.0001 77.8 75.8001 77.8 76.7001 77.8Z" fill="#9C9C9C"/>
<path d="M22.6001 58.7C23.0001 57.1 23.8001 55.7 24.5001 54.2C24.6001 54 24.8001 53.8 24.9001 53.6C26.3001 50.6 27.6001 47.6 29.1001 44.7C30.9001 41.1 32.6001 37.5 34.4001 33.9C35.1001 32.5 35.7001 31.1 36.4001 29.7C38.3001 25.9 40.1001 22.2 41.9001 18.4C42.8001 16.6 43.6001 14.8 44.4001 13C44.9001 12 45.6001 11.5 46.3001 11.9C46.9001 12.2 47.1001 12.9 47.4001 13.4C47.7001 13.9 47.8001 14.5 48.1001 15C49.2001 17.7 50.5001 20.4 51.7001 23.1C53.2001 26.5 54.8001 29.9 56.3001 33.3C57.9001 36.8 59.4001 40.3 61.1001 43.8C61.9001 45.6 62.6001 47.4 63.4001 49.1C65.1001 52.6 66.7001 56.1 68.2001 59.6C68.3001 59.9 68.8001 60.1 68.7001 60.5C67.3001 59.9 66.0001 59 64.8001 58C65.2001 57.7 64.9001 57.4 64.8001 57.1C64.5001 56.2 63.9001 55.3 63.5001 54.4C62.0001 50.9 60.5001 47.3 58.8001 43.8C57.9001 42 57.2001 40.1 56.4001 38.2C54.8001 34.7 53.2001 31.2 51.7001 27.7C50.5001 24.9 49.1001 22.1 48.0001 19.3C47.8001 18.8 47.8001 18.3 47.3001 17.9C47.2001 19.7 47.0001 21.4 46.9001 23C46.5001 31.5 46.4001 40.1 46.1001 48.7C46.1001 49 46.0001 49.4 46.3001 49.6C45.8001 49.9 45.3001 50.3 44.8001 50.6C43.9001 51 43.2001 51.8 42.2001 51.8C40.8001 51.8 39.4001 51.6 38.0001 51C36.7001 50.5 35.3001 50.3 33.9001 50.7C32.8001 51.1 31.8001 51.8 30.9001 52.6C28.9001 54.2 26.9001 55.9 24.8001 57.3C24.2001 57.8 23.5001 58.5 22.6001 58.7Z" fill="#9C9C9C"/>
<path d="M22.5999 58.7C23.5999 58.5 24.1999 57.8 24.8999 57.3C26.9999 55.8 28.9999 54.2 30.9999 52.6C31.8999 51.9 32.8999 51.1 33.9999 50.7C35.2999 50.2 36.7999 50.4 38.0999 51C39.3999 51.6 40.7999 51.8 42.2999 51.8C43.2999 51.8 43.9999 51 44.8999 50.6C45.4999 50.4 45.8999 50 46.3999 49.6C47.1999 49.3 47.7999 48.7 48.4999 48.3C49.1999 47.9 49.9999 47.4 50.7999 47.3C52.2999 47.1 53.6999 47.6 54.8999 48.4C56.6999 49.7 57.9999 51.4 59.5999 52.8C61.3999 54.5 62.9999 56.2 64.8999 57.8C66.0999 58.8 67.2999 59.7 68.7999 60.3C70.1999 61.5 71.9999 61.9 73.6999 62.1C79.2999 62.5 84.9999 62.5 90.5999 62.6C92.0999 62.6 91.4999 63.4 91.5999 64C91.7999 64.8 91.2999 64.9 90.4999 64.9C85.1999 64.8 79.8999 64.7 74.5999 64.7C73.0999 64.7 71.6999 64.2 70.2999 63.9C69.2999 63.5 68.2999 63 67.2999 62.7C66.8999 62.2 66.1999 62 65.5999 61.6C62.8999 59.9 60.5999 57.8 58.4999 55.6C56.6999 53.8 54.8999 52.1 52.9999 50.4C52.0999 49.5 51.0999 49.4 49.8999 50C48.3999 50.7 47.1999 51.9 45.8999 52.8C45.2999 53.2 44.6999 53.7 44.0999 53.9C41.8999 54.6 39.5999 54.6 37.4999 53.5C36.0999 52.8 34.9999 52.8 33.6999 53.8C32.3999 54.8 31.0999 55.8 29.7999 56.8C28.8999 57.6 27.9999 58.4 26.9999 59.1C24.9999 60.6 22.8999 61.9 20.4999 62.8C20.3999 62.8 20.1999 62.7 20.2999 63C14.0999 63.6 7.9999 63 1.8999 63.1C0.999902 63.1 0.899902 62.9 0.899902 62.1C0.999902 60.6 0.999902 60.6 2.6999 60.6C7.3999 60.7 12.1999 60.7 16.8999 60.8C18.3999 60.8 19.8999 60.6 21.0999 59.7C21.5999 59.4 22.1999 59.4 22.4999 58.9C22.5999 59 22.6999 58.9 22.5999 58.7Z" fill="#13396F"/>
<path d="M70.7998 65.2C72.1998 65.7 73.5998 65.8 75.0998 65.9C80.2998 66 85.3998 66.1 90.5998 66.1C91.3998 66.1 91.7998 66.3 91.6998 67.1C91.5998 68.6 91.6998 68.6 89.9998 68.6C84.8998 68.5 79.7998 68.4 74.6998 68.4C73.8998 68.4 72.9998 68.1 72.1998 68.2C71.2998 67.9 70.3998 68 69.4998 67.8C66.1998 67 63.0998 65.6 60.0998 64C57.3998 62.6 54.7998 61.2 51.9998 60C49.9998 59.2 47.9998 58.4 45.6998 58.6C44.9998 58.6 44.3998 58.3 43.5998 58.5C42.4998 58.8 41.5998 59.3 40.6998 59.9C40.1998 60.2 39.7998 60.5 39.1998 60.6C37.6998 60.9 36.3998 60.8 34.9998 60.4C33.7998 60.1 32.5998 59.9 31.5998 60.8C30.5998 61.6 29.5998 62.4 28.5998 63.1C25.5998 65.2 22.3998 66.7 18.4998 66.8C18.3998 66.8 18.1998 66.7 18.2998 67C12.7998 66.9 7.3998 66.8 1.8998 66.8C0.999805 66.8 0.799805 66.6 0.799805 65.8C0.899805 64.2 0.799805 64.2 2.6998 64.2C7.8998 64.3 13.0998 64.4 18.2998 64.5C18.7998 64.5 19.2998 64.6 19.8998 64.4C20.0998 64.4 20.2998 64.4 20.4998 64.4C23.2998 63.9 25.3998 62.2 27.5998 60.7C28.7998 59.8 30.0998 59 31.3998 58.1C31.9998 57.6 32.7998 57.5 33.4998 57.8C35.7998 58.8 37.8998 58.2 39.9998 57.4C41.8998 56.6 43.8998 56.1 45.9998 56C46.7998 56.4 47.6998 56.1 48.4998 56.3C51.1998 56.8 53.4998 57.8 55.7998 59.1C58.2998 60.4 60.7998 61.8 63.3998 63.1C64.7998 63.8 66.3998 64.4 67.9998 64.7C67.8998 64.9 68.0998 64.9 68.1998 64.9C68.9998 64.9 69.8998 65.2 70.7998 65.2Z" fill="#13396F"/>
<path d="M16.8 70C12.5 70 8.2 70.1 4 70.1C2.9 70.1 1.8 70.1 0.7 70.1C0.2 70.1 0 69.9 0 69.5C0 69.4 0 69.4 0 69.3C0 67 0 67 2.5 67.1C7.6 67.2 12.6 67.3 17.7 67.4C17.9 67.4 18.1 67.4 18.3 67.3C19.7 67.5 21 67.4 22.4 67.1C26.1 66.4 29.4 64.7 32.7 63.1C33.5 62.7 34.2 62.2 35.2 62.2C37.2 62.2 39.3 62.2 41.2 62.9C44 63.9 46.9 64.6 50 64.1C51.2 64 52.4 63.9 53.7 63.9C54.9 63.9 56.1 63.9 57.3 64.4C60 65.5 62.6 66.7 65.3 67.8C66.8 68.4 68.4 68.9 70.1 68.7C70.9 68.7 71.8 68.7 72.6 68.7C78.4 68.8 84.1 68.9 89.9 69C91 69 91.3 69.2 91.2 70.2C91.1 71.5 91.2 71.5 89.7 71.5C84.5 71.4 79.3 71.3 74 71.3C73.1 71.3 72.2 71.3 71.4 71.3C69.3 71.4 67.3 71 65.4 70.3C62.6 69.3 59.9 68.1 57.2 66.9C55.8 66.3 54.3 66.1 52.8 66.5C51.8 66.5 51 66.8 50.1 67.1C49 67.4 48 67.5 47 67.2C44.6 66.4 42.2 65.5 39.8 64.7C38.1 64.1 36.5 64 34.8 64.8C32.3 65.9 29.9 67.1 27.3 68C25.6 68.6 23.9 69.3 22.2 69.6C20.4 69.9 18.6 69.9 16.8 70Z" fill="#13396F"/>
<path d="M76.7001 77.8C75.8001 77.8 74.9001 77.8 74.0001 77.8C71.2001 77.8 68.5001 77.7 65.7001 77.7C63.3001 77.5 60.9001 77.7 58.5001 77.6C43.8001 77.4 29.2001 77.2 14.5001 77C14.1001 77 13.8001 77 13.4001 77C9.6001 77 5.6001 76.9 1.7001 76.8C0.800098 76.8 0.600098 76.6 0.600098 75.8C0.700098 74.1 0.600098 74.1 2.4001 74.2C6.6001 74.3 10.8001 74.3 14.9001 74.3C15.2001 74.3 15.5001 74.4 15.8001 74.4C30.7001 74.6 45.6001 74.9 60.4001 75.1C61.1001 75.1 61.8001 75.1 62.5001 75C65.9001 75.2 69.3001 75.2 72.7001 75.2C73.5001 75.2 74.4001 75.2 75.2001 75.2C79.4001 75.3 83.7001 75.4 87.9001 75.4C88.4001 75.4 88.9001 75.4 89.4001 75.4C91.0001 75.5 90.7001 75.2 90.8001 76.7C90.9001 77.7 90.5001 77.9 89.4001 77.9C85.3001 77.9 81.0001 77.9 76.7001 77.8Z" fill="#13396F"/>
<path d="M74.1001 72.4C79.1001 72.5 84.1001 72.6 89.0001 72.7C90.9001 72.7 90.9001 72.7 90.9001 74.5C90.9001 75.1 90.7001 75.2 90.1001 75.2C85.2001 75 80.4001 74.9 75.5001 74.8C75.4001 74.8 75.4001 74.8 75.3001 74.8C74.4001 74.8 73.5001 74.8 72.6001 74.8C70.1001 74.6 67.5001 74.4 65.0001 73.9C63.5001 73.6 61.9001 73.1 60.3001 73.1C60.4001 72.9 60.2001 72.9 60.1001 72.9C59.3001 72.7 58.5001 72.5 57.7001 72.3C53.4001 71.3 49.0001 70.4 44.5001 70.8C41.0001 71.2 37.4001 71.4 33.9001 71.8C27.7001 72.5 21.5001 73.7 15.2001 73.6C10.7001 73.4 6.20006 73.3 1.70006 73.2C0.800062 73.2 0.500062 73 0.600062 72.2C0.600062 72 0.600062 71.8 0.600062 71.6C0.500062 70.9 0.700062 70.6 1.60006 70.7C5.90006 70.9 10.1001 71.1 14.4001 71.3C15.0001 71.3 15.6001 71.3 16.2001 71.3C16.7001 71.3 17.1001 71.4 17.6001 71.3C19.6001 71.1 21.7001 70.7 23.7001 70.5C28.1001 70.1 32.5001 69.4 37.0001 68.8C38.5001 68.6 40.0001 68.2 41.6001 68.3C46.3001 68.4 51.0001 68 55.5001 69C57.7001 69.6 59.9001 70.2 62.0001 70.8C65.1001 71.6 68.2001 72.6 71.5001 72.3C72.4001 72.3 73.2001 72.4 74.1001 72.4Z" fill="#13396F"/>
<path d="M15.1999 73.6C21.4999 73.7 27.6999 72.5 33.8999 71.8C37.3999 71.4 40.9999 71.1 44.4999 70.8C48.9999 70.3 53.3999 71.2 57.6999 72.3C58.4999 72.5 59.2999 72.7 60.0999 72.9C60.1999 73 60.2999 73 60.2999 73.1C60.9999 73.9 61.9999 74.3 62.5999 75.2C61.8999 75.2 61.1999 75.3 60.4999 75.3C45.5999 75.1 30.6999 74.8 15.8999 74.6C15.5999 74.6 15.2999 74.5 14.9999 74.5C14.8999 74.1 15.0999 73.8 15.1999 73.6Z" fill="#9C9C9C"/>
<path d="M104.1 51.3C104.4 34.6 104.6 17.9 104.9 1.30001C104.9 0.900006 104.5 0.100006 105.3 0.100006C106.1 0.100006 105.7 0.900006 105.7 1.40001C105.6 13 105.3 24.7 105.3 36.3C105.2 58.1 104.7 79.9 104.4 101.7C104.4 102 104.4 102.2 104.4 102.5C104.4 102.8 104.1 102.8 103.9 102.8C103.7 102.8 103.4 102.8 103.4 102.5C103.4 102.2 103.4 102 103.4 101.7C103.6 84.8 103.9 68 104.1 51.3Z" fill="#13396F"/>
<path d="M55.5002 69C50.9002 68 46.2002 68.4 41.6002 68.3C40.1002 68.3 38.6002 68.6 37.0002 68.8C32.6002 69.3 28.2002 70 23.7002 70.5C21.7002 70.7 19.6002 71 17.6002 71.3C17.2002 71.4 16.7002 71.3 16.2002 71.3C16.3002 70.9 16.5002 70.4 16.6002 70C18.4002 69.9 20.2002 69.9 22.0002 69.6C23.8002 69.3 25.4002 68.6 27.1002 68C29.7002 67.1 32.1002 65.9 34.6002 64.8C36.3002 64 37.9002 64.2 39.6002 64.7C42.0002 65.5 44.4002 66.4 46.8002 67.2C47.7002 67.5 48.7002 67.4 49.7002 67.1C50.6002 66.8 51.5002 66.5 52.4002 66.5C53.7002 67.3 54.8002 68 55.5002 69Z" fill="#9C9C9C"/>
<path d="M45.8002 55.8C43.7002 55.9 41.7002 56.4 39.8002 57.2C37.8002 58.1 35.6002 58.7 33.3002 57.6C32.6002 57.3 31.9002 57.4 31.2002 57.9C30.0002 58.8 28.7002 59.6 27.4002 60.5C25.2002 62 23.1002 63.6 20.3002 64.2C20.1002 64.2 19.9002 64.2 19.7002 64.2C19.7002 63.7 20.2002 63.4 20.1002 62.8C20.2002 62.8 20.3002 62.7 20.3002 62.6C22.7002 61.7 24.8002 60.4 26.8002 58.9C27.8002 58.2 28.7002 57.4 29.6002 56.6C30.9002 55.6 32.2002 54.5 33.5002 53.6C34.8002 52.6 36.0002 52.6 37.3002 53.3C39.4002 54.4 41.6002 54.4 43.9002 53.7C44.6002 53.5 45.1002 53 45.7002 52.6C45.9002 53.8 45.8002 54.8 45.8002 55.8Z" fill="#9C9C9C"/>
<path d="M49.9002 64.1C46.8002 64.6 44.0002 63.9 41.1002 62.9C39.2002 62.2 37.1002 62.2 35.1002 62.2C34.1002 62.2 33.4002 62.7 32.6002 63.1C29.3002 64.7 26.0002 66.3 22.3002 67.1C21.0002 67.4 19.6002 67.5 18.2002 67.3C18.2002 67.2 18.2002 67 18.2002 66.9C18.3002 66.8 18.4002 66.8 18.4002 66.7C22.3002 66.6 25.5002 65.1 28.5002 63C29.5002 62.2 30.5002 61.5 31.5002 60.7C32.5002 59.9 33.7002 60 34.9002 60.3C36.3002 60.6 37.7002 60.8 39.1002 60.5C39.7002 60.4 40.2002 60.1 40.6002 59.8C41.5002 59.2 42.4002 58.7 43.5002 58.4C44.3002 58.2 44.9002 58.5 45.6002 58.5C45.6002 58.8 45.6002 59.1 45.6002 59.4C45.5002 60.2 45.7002 60.8 46.5002 61.3C47.9002 62.1 48.9002 63.2 49.9002 64.1Z" fill="#9C9C9C"/>
<path d="M124 87.3C124 85 124.1 82.6 124.1 80.3C124.1 79.5 124.4 79.2 125.2 79.3C125.9 79.4 126.7 79.4 127.4 79.3C128 79.3 128.1 79.5 128.1 80C128 84.9 127.9 89.8 127.8 94.7C127.8 95.2 127.6 95.5 127 95.4C126 95.3 124.6 95.7 124 95.2C123.5 94.7 123.9 93.5 123.9 92.6C124 90.9 124 89.1 124 87.3Z" fill="white"/>
<path d="M231.6 90.9C231.6 89.1 231.7 87.3 231.7 85.5C231.7 85 231.8 84.7 232.5 84.8C233 84.9 233.6 84.8 234.1 84.8C234.7 84.8 235 84.9 235.2 85.4C235.3 85.8 235.5 86 236 85.6C237.2 84.8 238.7 84.8 240.1 84.6C240.2 84.6 240.3 84.6 240.3 84.6C240.9 85.4 240.4 86.2 240.6 87C240.7 87.5 240.2 87.4 239.9 87.4C239.7 87.4 239.4 87.4 239.2 87.4C236.9 87.4 236.2 88 235.5 90C234.9 92 235.2 94 235.1 96.1C235.1 96.7 235 96.9 234.2 96.9C231.6 96.9 231.6 96.9 231.7 94.5C231.5 93.5 231.6 92.2 231.6 90.9Z" fill="white"/>
<path d="M392 88.9C393.5 87.5 395.1 87.3 396.6 87.2C397.1 87.2 397.3 87.3 397.2 87.7C397.2 87.8 397.2 88 397.2 88.1C397.2 88.7 397.4 89.5 397.1 90C396.7 90.5 395.8 90.2 395.1 90.1C393.7 90 392.4 91.5 392.1 92.7C391.7 94.7 391.8 96.6 391.9 98.6C391.9 99.3 391.8 99.6 390.9 99.6C388.4 99.5 388.4 99.6 388.5 97.3C388.5 94.2 388.6 91.2 388.6 88.1C388.6 87.5 388.8 87.2 389.5 87.3C389.7 87.3 390 87.3 390.2 87.3C391.1 87.4 392.3 87.1 392 88.9Z" fill="white"/>
<path d="M426.3 93.9C426.3 92.1 426.4 90.3 426.4 88.5C426.4 88 426.5 87.9 427.1 87.9C430.1 87.9 430.1 87.9 430.1 90.6C430.1 93.5 430 96.5 430 99.4C430 100.1 429.8 100.3 429 100.2C426.2 100.1 426.2 100.2 426.3 97.7C426.3 96.4 426.3 95.2 426.3 93.9Z" fill="white"/>
<path d="M210 90.6C210 92.4 209.9 94.1 209.9 95.9C209.9 96.5 209.8 96.7 209 96.7C206.4 96.7 206.4 96.7 206.4 94.3C206.5 91.3 206.5 88.3 206.5 85.3C206.5 84.6 206.7 84.3 207.4 84.5C207.7 84.5 208 84.5 208.2 84.5C209.3 84.5 209.9 85.1 209.9 86.1C210.1 87.6 210 89.1 210 90.6Z" fill="white"/>
<path d="M243.4 91.1C243.4 89.3 243.5 87.5 243.5 85.7C243.5 85.2 243.7 85 244.3 85C247 85 247 85 246.9 87.4C246.9 90.4 246.8 93.5 246.9 96.5C246.9 97.2 246.7 97.3 245.9 97.3C243.3 97.2 243.3 97.3 243.4 95C243.4 93.7 243.4 92.4 243.4 91.1Z" fill="white"/>
<path d="M208.6 82.5C207.3 82.5 206.4 81.8 206.5 80.8C206.6 79.8 207.3 79 208 79C209.6 79 211.1 79.8 211 80.6C211 81.5 209.6 82.5 208.6 82.5Z" fill="white"/>
<path d="M250.7 80.2C248.3 81.6 246.6 83.9 243.3 83.3C243.8 82.5 244.5 81.9 245.2 81.3C245.7 80.9 245.9 80.2 246.5 80.2C247.8 80.1 249.1 80.2 250.7 80.2Z" fill="white"/>
<path d="M426.1 86.1C427.2 85.2 428.1 84.2 429.1 83.2C429.2 83 429.5 83 429.7 83C430.7 83.2 431.8 83.3 433.1 83.5C431 85 429.2 86.7 426.1 86.1Z" fill="white"/>
<path d="M217.1 91.6C217.3 92.5 217.7 93.1 218.6 93.5C219.9 94.1 221.1 94.7 222.7 94.5C223.5 94.4 224.2 94.2 224.8 93.7C225.2 93.5 225.6 93.2 226.1 93.5C226.7 93.9 227.4 94.5 227.3 95.1C227.2 95.7 226.4 96.1 225.7 96.3C222 97.4 218.5 97.2 215.4 94.8C214 93.7 213.3 90.6 213.9 88.6C214.8 85.7 217.2 84.8 220.1 84.5C223.6 84.1 226.2 85.4 228.1 88C228.8 89 228.6 90.2 228.6 91.4C228.6 91.9 228.1 91.7 227.8 91.7C225.2 91.7 222.6 91.6 220 91.6C219 91.7 218.1 91.6 217.1 91.6ZM221 89.9C222.1 89.9 223.2 89.9 224.4 90C225.3 90.1 225.2 89.8 225 89.2C224.5 88 223.6 87.3 222.2 87C220.2 86.5 217.8 87.6 217.2 89.2C217 89.7 217.1 90 217.8 90C218.8 89.8 219.9 89.9 221 89.9Z" fill="white"/>
<path d="M408.6 98.6C405.9 100.7 402.2 100.3 399.7 98C398.7 97.1 398.9 94.9 400 94C401.5 92.7 403.3 92.6 405.2 92.5C406.2 92.5 407.3 92.5 408.4 92.6C409 92.6 409 92.4 409 92C408.8 90.8 407.7 90.1 406.1 89.9C404.6 89.8 403.2 90 401.9 90.6C401.3 90.8 401 90.7 400.8 90.2C400.7 90 400.6 89.8 400.4 89.6C399.7 88.7 399.7 88.7 400.9 88.3C403.7 87.4 406.5 87 409.4 88C411.5 88.8 412.4 90.4 412.6 92.2C412.8 94.6 412.6 97 412.6 99.5C412.6 99.9 412.4 100 412 100C411.2 100 410.5 100 409.7 100C408.7 99.8 409.1 99 408.6 98.6ZM405.3 97.7C407.5 97.8 408.7 96.8 408.8 95.2C408.8 95 409 94.6 408.5 94.6C406.9 94.6 405.3 94.4 403.7 94.7C402.4 95 402.1 96.1 403 97C403.7 97.7 404.6 97.6 405.3 97.7Z" fill="white"/>
<path d="M178.9 91C177.2 91 175.5 91 173.8 90.9C173.1 90.9 173.1 91.1 173.3 91.6C173.9 92.6 174.9 93.2 175.9 93.5C177.5 94 179.2 94.2 180.7 93.1C181 92.9 181.5 92.7 182 92.9C182.6 93.3 183 93.9 183.3 94.5C183.4 94.7 183 94.8 182.8 94.9C180.1 96.7 177.1 96.7 174.2 95.7C169.3 94 168.5 89.9 170.7 86.3C171.9 84.4 174.1 83.8 176.4 83.7C179.5 83.6 182 84.6 183.9 86.9C184.8 88 184.6 89.4 184.6 90.7C184.6 91.1 184.2 91 183.9 91C182.3 91.1 180.6 91 178.9 91ZM177.4 89.2C178.6 89.2 179.7 89.2 180.9 89.3C181.2 89.3 181.7 89.3 181.4 88.9C180.6 87.8 180 86.5 178.2 86.2C176.6 85.9 174.4 86.6 173.4 87.9C173.2 88.2 173 88.6 173.2 89C173.3 89.4 173.8 89.2 174.1 89.2C175.2 89.2 176.3 89.2 177.4 89.2Z" fill="white"/>
<path d="M443.1 98.8C441 100.7 438.7 100.6 436.5 100.1C434 99.4 432.6 97.9 433.3 95.7C433.7 94.1 435.2 93.6 436.6 93.3C438.4 92.9 440.2 93 442.1 93.1C443.2 93.1 443.2 93 442.9 92.1C442.7 91.4 442.2 90.9 441.4 90.8C439.5 90.3 437.6 90.3 435.8 91.1C435.3 91.3 435.1 91.2 434.9 90.8C434.9 90.7 434.8 90.7 434.8 90.6C433.8 89.1 433.7 89.1 435.6 88.6C438.4 87.8 441.2 87.7 444 88.8C445.1 89.2 445.7 89.9 446 90.9C446.6 92.8 446.9 94.7 446.8 96.7C446.7 97.8 446.7 98.8 446.7 99.9C446.7 100.4 446.6 100.7 445.9 100.6C445.5 100.5 445 100.5 444.6 100.6C443.6 100.5 443 100.3 443.1 98.8ZM439.5 98.3C439.7 98.3 439.9 98.3 440.1 98.3C442.2 97.9 442.9 97.4 443 95.7C443 95.3 442.9 95.2 442.5 95.2C441.2 95.2 439.8 95 438.5 95.2C437.7 95.3 437.1 95.6 436.6 96.1C436.4 96.3 436.4 96.5 436.5 96.8C437.3 97.7 438.1 98.3 439.5 98.3Z" fill="white"/>
<path d="M263.9 94C263.9 95 263.8 96 263.9 97.1C263.9 97.7 263.4 97.7 263 97.6C262.1 97.4 260.9 98.2 260.5 97.1C260.1 96.2 260.2 96 259.4 96.7C257.3 98.3 253.2 97.6 251.5 95.9C250.1 94.5 249.9 91.6 252.9 90.8C255 90.2 257.1 90.2 259.2 90.2C259.6 90.2 260.2 90.4 260.3 90C260.4 89.5 260.3 89 259.8 88.5C259.1 87.8 258.3 87.6 257.4 87.5C255.9 87.4 254.3 87.4 252.9 88.1C252.5 88.3 252.2 88.3 252 87.9C251.9 87.7 251.8 87.5 251.6 87.3C250.8 86.1 250.9 86 252.4 85.6C254.8 84.9 257.1 84.8 259.6 85.3C262.6 85.9 263.6 86.9 263.8 90C264 91.4 264.1 92.7 263.9 94ZM258.2 92.3C257.1 92.3 256 92.3 255 92.6C254.5 92.7 253.9 92.9 253.8 93.4C253.7 94 254 94.5 254.5 94.8C256.1 95.9 258.9 95.6 260 94.1C260.3 93.7 260.6 93.1 260.4 92.6C260.2 92.2 259.6 92.4 259.2 92.4C258.9 92.2 258.5 92.3 258.2 92.3Z" fill="white"/>
<path d="M323 86.1C327.4 86.2 330 88.1 330.6 91.4C331.2 94.8 329.2 97.1 326 98.2C322.2 99.4 318.9 98.5 316.2 95.9C314.2 94 314.6 90.2 316.8 88.3C318.7 86.6 320.9 86.1 323 86.1ZM322.8 96.1C323 96.1 323.5 96 323.9 95.9C325.5 95.6 326.9 94.2 327.2 92.7C327.5 91.1 326.9 90 325.4 89.2C324.3 88.6 323.2 88.6 322 88.9C321.4 89 320.6 88.8 320 89.4C318.7 90.7 318.2 92.5 319 94.1C319.8 95.3 321 96 322.8 96.1Z" fill="white"/>
<path d="M132.8 89.4C132.8 87.6 132.9 85.8 132.9 84C132.9 83.5 133.1 83.2 133.7 83.3C134.3 83.4 134.8 83.3 135.4 83.3C135.9 83.3 136.2 83.4 136.4 83.8C136.6 84.3 136.9 84.3 137.3 84.1C139.7 82.8 142.2 83 144.7 83.8C146.2 84.3 146.9 85.6 147.3 86.8C147.9 88.9 147.7 91 147.6 93.2C147.6 93.4 147.6 93.5 147.5 93.7C147.4 94.4 147.8 95.4 147.3 95.6C146.4 95.9 145.2 95.7 144.2 95.7C143.6 95.7 143.9 95.2 143.9 94.9C143.9 93.1 144 91.2 144 89.3C144 89 144 88.7 143.9 88.4C143.6 86.7 143 86.1 141.6 85.8C139.6 85.4 138.4 85.8 137.3 87.1C136.2 88.5 136.4 90 136.3 91.6C136.2 92.7 136.2 93.8 136.3 94.9C136.3 95.5 136.1 95.6 135.5 95.6C132.8 95.6 132.8 95.6 132.9 93.2C132.7 91.9 132.8 90.7 132.8 89.4Z" fill="white"/>
<path d="M359.4 99.1C354.9 99.3 350.8 96.3 351.2 92.2C351.4 89.6 352.9 88.3 355.5 87.3C358 86.4 360.5 86.3 363.1 87.4C367 89 368.1 93.5 365.8 96.3C364.4 98.1 362.2 99 359.4 99.1ZM363.5 92.8C363.7 91.1 361.8 89.2 359.2 89.1C356.5 89 354.8 90.8 354.8 92.8C354.8 94.9 356.5 96.5 358.7 96.6C361.3 96.8 363.6 94.5 363.5 92.8Z" fill="white"/>
<path d="M273.7 85.5C277.4 85.4 277.4 85.4 278.7 88.4C279.4 90 280.3 91.6 281.1 93.2C281.5 93.9 281.9 93.8 282.2 93.3C282.5 93 282.7 92.6 282.8 92.2C283.6 90.1 284.9 88.3 285.8 86.3C286 85.8 286.4 85.6 287 85.6C287.7 85.7 288.5 85.7 289.2 85.7C289.7 85.7 289.9 85.9 289.5 86.2C289.2 86.4 289.1 86.7 289 86.9C287.6 89.5 286.4 92.1 284.9 94.6C283.7 96.5 282.9 98.5 281.4 100.3C279.3 102.9 276.4 102.7 273.8 101.6C273.3 101.4 273.1 101 273.4 100.5C273.4 100.4 273.5 100.4 273.5 100.3C274 99.4 274.7 99.2 275.8 99.5C277.3 100.1 279.1 99.4 279.6 98C279.7 97.6 279.8 97.1 279.5 96.8C279.1 96.4 278.9 95.9 278.7 95.4C277.6 92.9 276.2 90.6 275.1 88.1C274.7 87.3 274.1 86.5 273.7 85.5Z" fill="white"/>
<path d="M191.6 85.3C193.7 84.1 195.9 83.8 198.2 84.2C200.7 84.7 202.2 86.2 202.4 88.6C202.6 91.1 202.4 93.5 202.4 96C202.4 96.5 202.2 96.7 201.6 96.6C201.1 96.6 200.6 96.6 200.1 96.6C199.2 96.6 198.8 96.2 198.8 95.3C198.9 93.6 199 92 198.9 90.3C198.9 89.3 198.5 88.5 198 87.6C197.4 86.7 196.5 86.6 195.5 86.6C193.3 86.5 192.2 87 191.6 89C191 91.1 191.3 93.3 191.2 95.4C191.2 96.2 191 96.4 190.1 96.4C187.5 96.3 187.5 96.3 187.5 94C187.6 91 187.6 88.1 187.6 85.1C187.6 84.3 187.9 84 188.7 84.2C189 84.3 189.4 84.2 189.8 84.2C190.7 84.2 191.7 84.1 191.6 85.3Z" fill="white"/>
<path d="M305.7 82.2C308.1 82.2 310.5 82.3 312.9 82.3C313.6 82.3 313.9 82.5 313.9 83.1C313.9 85 313.9 85 311.8 85C310.7 85 309.6 85 308.4 84.9C307.8 84.9 307.6 85 307.6 85.6C307.6 89.5 307.5 93.4 307.5 97.4C307.5 98 307.4 98.2 306.6 98.2C303.8 98.2 303.8 98.2 303.8 95.6C303.8 92.3 303.9 88.9 303.9 85.5C303.9 84.9 303.8 84.7 303 84.7C301.4 84.8 299.8 84.7 298.3 84.7C297.7 84.7 297.5 84.6 297.5 83.9C297.5 81.9 297.5 81.9 299.7 81.9C301.7 82.2 303.7 82.2 305.7 82.2Z" fill="white"/>
<path d="M416.9 95C416.9 93.6 416.9 92.2 417 90.9C417 90.4 416.9 90.2 416.3 90.1C414.5 90 414.4 89.9 414.6 88.2C414.7 87.8 414.8 87.7 415.2 87.8C415.6 87.8 416 87.8 416.5 87.8C416.9 87.8 417.1 87.7 417.1 87.3C417.5 84 418.9 82.9 423.2 83C423.5 83 423.8 83.1 424.1 83.2C425.8 83.6 425.8 83.5 425.1 85C424.9 85.5 424.5 85.6 424.1 85.6C423.6 85.6 423.1 85.5 422.6 85.4C421.3 85.3 420.3 86.4 420.4 87.6C420.4 88 420.8 87.9 421 87.9C421.8 87.9 422.7 88 423.5 87.9C424.2 87.9 424.5 88.1 424.4 88.7C424.4 88.9 424.4 89.2 424.4 89.5C424.5 90.2 424.2 90.4 423.4 90.3C422.7 90.2 422.1 90.3 421.4 90.2C420.7 90.1 420.6 90.4 420.6 91C420.6 93.8 420.5 96.5 420.5 99.2C420.5 99.9 420.3 100 419.5 100C416.8 99.9 416.8 100 416.8 97.4C416.8 96.7 416.9 95.8 416.9 95Z" fill="white"/>
<path d="M162.5 94.1C160.7 95 158.9 95.5 156.9 95.3C154.4 95 152.3 93.8 151.2 91.9C149.1 88.4 151.1 85.7 154.3 84.1C156.9 82.8 159.5 83.4 162.1 84.4C162.3 84.5 162.5 84.6 162.8 84.6C162.8 84.6 162.9 84.6 163 84.6C162.8 83.4 163.8 83.7 164.5 83.7C166.7 83.8 166.2 83.6 166.3 85.3C166.3 88.7 166.4 92.1 165.9 95.4C165.4 98.3 164.4 99.5 160.7 100.2C157.4 100.8 154.3 100.4 151.5 98.6C151.1 98.3 151.1 98.1 151.5 97.8C151.6 97.7 151.7 97.7 151.8 97.6C152.2 97.2 152.1 96.4 152.9 96.4C153.5 96.4 153.9 96.9 154.5 97.1C155.9 97.7 157.4 97.9 158.9 97.9C161 97.8 163 96.6 162.5 94.1ZM158.8 93C159.9 93.2 160.8 92.4 161.7 91.7C163.1 90.7 163.1 87.9 161.8 87C159.7 85.6 156 85.7 154.4 88C153.9 88.7 153.7 89.4 154 90.1C154.6 91.6 156.7 92.9 158.8 93Z" fill="white"/>
<path d="M380.6 97.6C379.2 98.1 377.9 98.8 376.3 98.8C374.2 98.8 372.4 98.1 370.8 96.8C368.5 94.9 367.9 92.1 369.6 89.8C370.9 88.1 372.8 87.1 375.2 87C376.9 86.9 378.6 87 380.1 88C380.6 88.3 381 88.4 381.3 87.8C381.7 87 382.4 87.4 383.1 87.4C384.2 87.3 384.5 87.6 384.5 88.7C384.5 92.1 384.6 95.5 384.1 98.8C383.6 102 382.1 103.3 378.6 103.9C375.5 104.5 372.6 103.9 369.9 102.5C369.3 102.2 369.1 101.9 369.6 101.2C370.6 99.9 370.5 99.9 372.1 100.5C373.6 101.1 375.1 101.5 376.8 101.5C379.4 101.5 380.8 100.2 380.9 97.9C381 97.8 381 97.7 380.9 97.7C380.7 97.5 380.7 97.6 380.6 97.6ZM376.8 89.5C375.1 89.3 373.8 89.9 372.7 90.9C372.1 91.5 372 92.3 372.2 93.2C372.4 94 372.5 94.8 373.6 95.3C376.3 96.7 377.8 96.7 380.1 94.9C381.1 94.1 381.3 91.5 380.4 90.7C379.4 89.9 378.2 89.3 376.8 89.5Z" fill="white"/>
<path d="M337 97.4C337 99.1 336.9 100.7 336.9 102.3C336.9 102.9 336.7 103.1 336.1 103.1C333.2 103.1 333.2 103.1 333.2 100.5C333.3 96.1 333.3 91.7 333.4 87.4C333.4 86.6 333.6 86.3 334.5 86.6C335.4 86.9 336.5 86.6 337.3 87.4C337.5 87.6 337.6 87.3 337.7 87.3C340.7 85.5 346.2 86.7 347.9 89C349.5 91.1 349.7 93.7 348 95.9C345.5 99.1 342.6 99.8 338.7 98.1C338.2 97.9 337.7 97.7 337 97.4ZM345.6 92.6C345.7 90 344.5 89 341 89C338.9 89 337.2 90.4 337.2 92.3C337.2 94.5 339.1 96.5 341.3 96.4C344 96.2 345.4 95.5 345.6 92.6Z" fill="white"/>
<path d="M70.7999 65.2C69.8999 65.1 68.9999 64.9 68.0999 64.6C67.9999 64.5 67.8999 64.5 67.8999 64.4C67.9999 63.7 67.3999 63.3 67.3999 62.6C68.4999 62.9 69.3999 63.4 70.3999 63.8C70.4999 64.4 70.6999 64.8 70.7999 65.2Z" fill="#9C9C9C"/>
<path d="M74.1002 72.4C73.3002 72.4 72.4002 72.4 71.6002 72.4C71.5002 72 71.3002 71.7 71.2002 71.3C72.1002 71.3 73.0002 71.3 73.8002 71.3C73.9002 71.6 74.0002 72 74.1002 72.4Z" fill="#9C9C9C"/>
<path d="M72.4 68.7C71.6 68.7 70.7 68.7 69.9 68.7C69.8 68.4 69.7 68.1 69.5 67.8C70.4 68 71.3 67.9 72.2 68.2C72.3 68.4 72.4 68.5 72.4 68.7Z" fill="#9C9C9C"/>
<path d="M72.6001 74.7C73.5001 74.7 74.4001 74.7 75.3001 74.7C75.3001 74.9 75.3001 75.1 75.3001 75.3C74.5001 75.3 73.6001 75.3 72.8001 75.3C72.8001 75.1 72.7001 74.9 72.6001 74.7Z" fill="#9C9C9C"/>
<path d="M22.6 58.7C22.6 58.8 22.6 58.9 22.5 58.9C22.5 58.8 22.5 58.7 22.6 58.7Z" fill="#9C9C9C"/>
<path d="M65.7998 77.7C68.5998 77.7 71.2998 77.8 74.0998 77.8C75.5998 81.3 77.1998 84.8 78.6998 88.4C77.0998 87.6 76.1998 86.4 74.9998 85.4C71.9998 83 69.1998 80.5 66.2998 78C66.1998 77.9 65.9998 77.8 65.7998 77.7Z" fill="#FEFEFE"/>
<path d="M64.8001 57.9C63.0001 56.3 61.3001 54.5 59.6001 52.9C58.0001 51.4 56.7001 49.7 54.9001 48.5C53.7001 47.7 52.3001 47.2 50.8001 47.4C49.9001 47.5 49.2001 48 48.5001 48.4C47.8001 48.8 47.2001 49.4 46.4001 49.7C46.1001 49.5 46.2001 49.1 46.2001 48.8C46.4001 40.3 46.6001 31.7 47.0001 23.1C47.1001 21.5 47.2001 19.8 47.4001 18C47.9001 18.5 47.9001 19 48.1001 19.4C49.2001 22.2 50.6001 25 51.8001 27.8C53.3001 31.3 54.9001 34.8 56.5001 38.3C57.3001 40.1 58.0001 42 58.9001 43.9C60.6001 47.4 62.1001 50.9 63.6001 54.5C64.0001 55.4 64.5001 56.3 64.9001 57.2C64.9001 57.3 65.3001 57.6 64.8001 57.9Z" fill="#FEFEFE"/>
<path d="M67.3999 62.7C67.4999 63.3 67.9999 63.8 67.8999 64.5C66.2999 64.2 64.6999 63.6 63.2999 62.9C60.6999 61.7 58.1999 60.3 55.6999 58.9C53.3999 57.7 50.9999 56.6 48.3999 56.1C47.5999 55.9 46.6999 56.2 45.8999 55.8C45.8999 54.8 45.8999 53.8 45.9999 52.8C47.3999 51.9 48.4999 50.7 49.9999 50C51.1999 49.4 52.1999 49.5 53.0999 50.4C54.9999 52.1 56.7999 53.9 58.5999 55.6C60.7999 57.8 63.0999 59.9 65.6999 61.6C66.1999 62 66.8999 62.1 67.3999 62.7Z" fill="#FEFEFE"/>
<path d="M20.5001 62.8C20.4001 62.8 20.3001 62.9 20.3001 63C20.1001 62.7 20.3001 62.8 20.5001 62.8Z" fill="#FEFEFE"/>
<path d="M69.6001 67.7C69.7001 68 69.8001 68.3 70.0001 68.6C68.3001 68.8 66.8001 68.3 65.2001 67.7C62.5001 66.6 59.8001 65.5 57.2001 64.3C56.1001 63.8 54.8001 63.8 53.6001 63.8C52.4001 63.8 51.2001 63.9 49.9001 64C48.8001 63 47.9001 62 46.7001 61.2C45.9001 60.7 45.7001 60.1 45.8001 59.3C45.8001 59 45.8001 58.7 45.8001 58.4C48.1001 58.2 50.1001 59 52.1001 59.8C54.9001 61 57.6001 62.4 60.2001 63.8C63.1001 65.6 66.2001 66.9 69.6001 67.7Z" fill="#FEFEFE"/>
<path d="M67.8998 64.4C67.9998 64.5 68.0998 64.5 68.0998 64.6C67.9998 64.6 67.7998 64.6 67.8998 64.4Z" fill="#FEFEFE"/>
<path d="M18.5002 66.8C18.4002 66.9 18.3002 66.9 18.3002 67C18.2002 66.7 18.4002 66.8 18.5002 66.8Z" fill="#FEFEFE"/>
<path d="M71.2001 71.2C71.3001 71.6 71.5001 71.9 71.6001 72.3C68.3001 72.5 65.2001 71.6 62.1001 70.8C59.9001 70.2 57.7001 69.6 55.6001 69C54.8001 68 53.7001 67.2 52.6001 66.5C54.1001 66 55.6001 66.3 57.0001 66.9C59.7001 68.1 62.4001 69.3 65.2001 70.3C67.1001 70.9 69.1001 71.3 71.2001 71.2Z" fill="#FEFEFE"/>
<path d="M72.5998 74.7C72.6998 74.9 72.6998 75.1 72.7998 75.2C69.3998 75.2 65.9998 75.2 62.5998 75C62.0998 74.1 60.9998 73.7 60.2998 72.9C61.8998 72.9 63.3998 73.4 64.9998 73.7C67.5998 74.3 70.0998 74.5 72.5998 74.7Z" fill="#FEFEFE"/>
<path d="M60.4002 72.9C60.3002 72.8 60.2002 72.8 60.2002 72.7C60.3002 72.8 60.5002 72.7 60.4002 72.9Z" fill="#FEFEFE"/>
<path d="M380.6 97.6C380.7 97.6 380.7 97.5 380.8 97.6C380.9 97.7 380.9 97.8 380.8 97.8C380.7 97.7 380.6 97.7 380.6 97.6Z" fill="#FEFEFE"/>
</g>
<defs>
<clipPath id="clip0_311_6">
<rect width="550" height="103.97" fill="white"/>
</clipPath>
</defs>
</svg>
