<?xml version="1.0" encoding="utf-8"?>

<svg
    xmlns="http://www.w3.org/2000/svg"
    id="Capa_1"
    data-name="Capa 1"
    viewBox="0 0 550 103.97"
  >
    <defs>
        <style type="text/css">
            .st0{fill:#13396F;}
            .st1{fill:#9C9C9C;}
            .st2{fill:#FEFEFE;}
        </style>
    </defs>
    <path
      d="M191.55 19.54c-.21.25-.3.34-.36.44-1.16 2.09-2.28 4.2-3.46 6.27-1.83 3.19-3.61 6.41-5.42 9.61-.84 1.49-1.57 3.03-2.46 4.49-1.83 2.98-3.41 6.08-5.13 9.1-.86 1.52-1.6 3.09-2.5 4.59-1.8 3-3.48 6.04-5.06 9.13-.21.42-.58.77-.8 1.19-.91 1.75-1.04 1.82-3.15 1.56-.17-.02-.44.01-.46-.15-.14-1.19-1.27-1.88-1.66-2.99-.91-2.57-2.44-4.91-3.6-7.4-.69-1.48-1.38-2.97-2.14-4.43-1.65-3.18-3.21-6.39-4.97-9.52-.76-1.36-1.39-2.76-2.13-4.12-1.81-3.29-3.42-6.65-5.1-9.99-.75-1.49-1.32-3.08-2.26-4.48-.86-1.29-1.25-2.78-2.15-4.11-.28.38-.18.7-.18 1.01-.22 13.52-.42 27.05-.66 40.57-.01.82.21 1.1 1.1 1.16 2.35.16 4.68.43 7.03.59.64.04.75.27.72.77-.04.7-.08 1.41-.03 2.11.04.63-.24.73-.86.71-7.45-.13-14.9-.25-22.36-.35-.69 0-1.03-.13-.94-.85.1-.85-.27-1.96.2-2.52.49-.58 1.78-.2 2.71-.27 1.64-.12 3.29-.27 4.93-.32.87-.02 1.07-.3 1.08-1.07.17-12.79.38-25.58.58-38.37.04-2.69.07-5.37.14-8.06.01-.52-.03-.82-.75-.84-2.53-.07-4.97-.88-7.51-.91-.03 0-.08 0-.1-.02-.97-.66-.19-1.57-.4-2.34-.11-.43.12-.66.63-.64.28.02.56 0 .84.01 7.8.12 15.61.29 23.41.32 1.42 0 2.11.52 2.55 1.53 1.02 2.37 2.39 4.59 3.53 6.9 1.72 3.49 3.57 6.94 5.37 10.4.75 1.43 1.41 2.89 2.19 4.3 1.72 3.11 3.28 6.29 4.93 9.42.66 1.25 1.25 2.53 2 3.8.66-.91 1.33-1.77 1.86-2.71 1.19-2.11 2.4-4.22 3.56-6.34.9-1.64 1.66-3.34 2.62-4.95 1.72-2.88 3.48-5.75 5.07-8.7.7-1.3 1.36-2.62 2.09-3.91 1.59-2.84 3.22-5.66 4.81-8.5.24-.43.53-.58 1.06-.57 8.58.15 17.15.28 25.73.4.61 0 .81.18.75.72-.07.7.18 1.55-.17 2.07-.39.58-1.41.21-2.15.3-1.87.24-3.73.61-5.64.61-.5 0-.71.17-.67.62.01.16 0 .32 0 .48-.24 15.35-.47 30.69-.74 46.04-.02.89.3 1.13 1.19 1.19 2.24.16 4.47.41 6.71.57.6.04.71.26.66.72-.03.25-.04.51-.05.76q-.08 2.11-2.37 2.08c-10.05-.16-20.11-.32-30.16-.45-.85-.01-1.2-.16-1.09-.99.11-.82-.23-1.86.22-2.42.42-.53 1.64-.19 2.5-.25 1.85-.14 3.71-.28 5.56-.37.5-.03.71-.16.66-.61-.01-.09 0-.19 0-.29.21-13.72.43-27.43.64-41.15v-.63ZM391.48 24.5c0 .53-.01.8-.02 1.08-.22 12.88-.42 25.77-.68 38.65-.02.86.25 1.14 1.17 1.21 2.35.15 4.68.41 7.03.58.54.04.74.17.71.68-.05.77-.07 1.54-.03 2.3.02.54-.24.62-.75.61-7.52-.13-15.05-.25-22.57-.35-.62 0-.9-.17-.84-.78.06-.63.07-1.28.03-1.92-.05-.68.28-.86.98-.89 2.28-.1 4.55-.27 6.83-.38.73-.03 1.06-.19 1.07-.98.21-15.44.45-30.88.72-46.32.01-.81-.26-.99-1.11-1.03-2.42-.12-4.76-.83-7.19-.9-.2 0-.46-.09-.46-.31 0-.8-.03-1.6.07-2.39.04-.32.49-.28.81-.28 5.03.08 10.05.15 15.08.24 2.21.04 4.43.11 6.64.13.62 0 1 .17 1.4.64 2.54 2.98 5.09 5.96 7.73 8.87 1.55 1.71 3.1 3.42 4.64 5.14 2.43 2.73 4.9 5.44 7.34 8.17 2.39 2.68 4.83 5.33 7.2 8.03 1.44 1.65 2.97 3.23 4.46 4.86.24-.19.13-.43.13-.63.17-9.91.33-19.82.53-29.73.02-.83-.2-1.07-1.13-1.1-2.46-.1-4.84-.81-7.3-.89-.56-.02-.49-.41-.43-.69.16-.76-.39-1.64.38-2.29.13-.11.48-.01.72-.01 7.45.12 14.9.24 22.36.33.8 0 1.08.16 1.04.95-.09 1.9-.04 1.91-2.18 2.13-2.02.21-4.02.62-6.06.64-.71 0-.66.39-.66.82-.06 3.55-.14 7.1-.2 10.64-.21 13.3-.42 26.6-.6 39.9-.01.76-.15 1.06-1.07.99-1.36-.1-2.74-.09-4.11-.08-.66 0-1.09-.24-1.49-.7-2.11-2.45-4.2-4.92-6.39-7.31-1.58-1.73-3.13-3.48-4.69-5.23-2.44-2.73-4.89-5.45-7.31-8.2-2.4-2.72-4.85-5.39-7.25-8.12-2.41-2.75-4.95-5.4-7.34-8.17-1.48-1.72-2.99-3.42-4.59-5.05-.84-.85-1.6-1.76-2.59-2.86ZM355.59 43.4c4.89.08 9.77.17 14.66.21.84 0 1.24.17 1.1 1-.07.37-.03.77-.03 1.15 0 .7-.3 1.09-1.15 1.2-1.36.16-2.7.4-4.07.5-1.36.1-1.53.31-1.55 1.54-.08 5.24-.17 10.48-.24 15.73-.01.87-.1 1.29-1.32 1.55-4.58.98-9.2 1.7-13.86 2.26-4.94.6-9.91 1.02-14.9.9-3.22-.07-6.48-.35-9.61-1.05-3.69-.83-7.4-1.75-10.78-3.44-.58-.29-1.09-.7-1.64-1.05-1.74-1.12-3.64-2.03-5.18-3.38-.12-.11-.32-.16-.41-.27-1.29-1.7-2.89-3.17-4.07-4.96-1.17-1.78-1.73-3.72-2.48-5.63-2.4-6.11-1.62-12.27-.22-18.37.48-2.11 1.67-4.1 3.04-5.96 1.1-1.5 2.16-3.02 3.35-4.46.81-.99 1.81-1.77 2.98-2.34.48-.23.8-.6 1.18-.89 2.09-1.63 4.63-2.46 7.09-3.43 2.78-1.09 5.73-1.63 8.71-2.09 1.96-.3 3.92-.15 5.88-.31 6.16-.52 12.27 0 18.33 1.02 3.94.66 7.77 1.74 11.67 2.54.46.09.6.31.59.74-.08 3.93-.14 7.86-.18 11.8 0 .49-.14.68-.71.65a39.06 39.06 0 0 0-3.06-.07c-.66.01-.92-.19-.96-.8-.12-1.82-.51-3.61-.61-5.43-.07-1.41-1.37-1.9-2.52-2.41-6.22-2.77-12.82-3.83-19.71-3.63-3.23.09-6.18.99-9.04 2.24-2.43 1.06-4.14 2.82-5.74 4.73-1.09 1.29-1.71 2.74-2.29 4.23-2.96 7.63-3.18 15.5-1.26 23.27 1.02 4.13 3.33 8.04 7.33 10.67 3.37 2.21 7.2 3.38 11.35 3.61 3.95.22 7.85-.06 11.7-.94.87-.2 1.21-.57 1.21-1.37.04-4.86.1-9.72.18-14.57 0-.52-.21-.69-.71-.72-2.43-.12-4.77-.79-7.19-.91-.55-.03-.59-.23-.61-.64-.07-2.65-.08-2.65 2.86-2.6 4.29.07 8.58.13 12.86.2ZM506.85 71.28c-4.71-.07-9.42-.16-14.13-.21-.66 0-.93-.13-.87-.79.09-.86-.27-1.91.17-2.53.47-.67 1.73-.23 2.64-.35 1.39-.18 2.79-.3 4.19-.37.58-.03.67-.22.45-.62-1.34-2.44-1.93-5.13-3.2-7.6-.72-1.41-1.13-2.95-1.68-4.43q-.77-2.1-3.15-2.14c-7.59-.12-15.18-.23-22.77-.37-.7-.01-.97.17-1.29.76-1.12 2.05-1.72 4.28-2.8 6.33-.87 1.63-1.44 3.35-2.21 5.01-.29.63-.65 1.24-.97 1.85-.23.44-.1.59.45.64 2.41.2 4.82.47 7.23.65.64.05.88.2.81.79-.11.91.39 2.11-.26 2.66-.51.43-1.8.12-2.74.11-5.62-.08-11.25-.18-16.87-.25-.7 0-1-.08-.87-.83.13-.72.07-1.47.05-2.2 0-.4.14-.53.6-.57 3.86-.35 3.88-.4 5.39-3.63 1.34-2.86 2.61-5.74 4.11-8.53.93-1.74 1.58-3.59 2.58-5.28.93-1.57 1.45-3.29 2.39-4.83 1.02-1.67 1.57-3.52 2.55-5.18 1.06-1.79 1.68-3.75 2.73-5.53.9-1.54 1.42-3.24 2.34-4.75 1.03-1.7 1.59-3.59 2.6-5.27 1.05-1.76 1.65-3.7 2.68-5.44.71-1.2 1.26-2.45 1.82-3.7.21-.47.51-.58 1.03-.57 4.25.08 8.5.14 12.76.2.81.01 1.17.29 1.56 1.04 1.87 3.61 3.2 7.41 4.88 11.08.76 1.67 1.29 3.42 2.15 5.04.99 1.87 1.5 3.89 2.47 5.75.9 1.73 1.38 3.6 2.27 5.31.95 1.81 1.49 3.76 2.44 5.55.98 1.84 1.53 3.81 2.4 5.67 1.69 3.61 3.29 7.25 4.77 10.94.25.63.59 1.26.87 1.9.27.62.91.76 1.54.85 1.04.16 2.08.31 3.12.42.54.06.83.2.76.76-.12.94.4 2.18-.26 2.75-.51.45-1.86.11-2.84.1l-11.91-.18Zm-25.73-48.19c-1.52 3.12-3.01 6.19-4.51 9.26-.83 1.7-1.58 3.44-2.37 5.15-1.39 3-2.94 5.95-4.19 9.01-.23.57-.24.8.53.77 1.19-.05 2.38-.05 3.58-.03 5.27.07 10.53.17 15.8.24 1.4.02 1.55.29.98-1.27-.65-1.77-1.26-3.54-2.13-5.25-.92-1.8-1.47-3.75-2.35-5.59-1.23-2.55-2.25-5.19-3.23-7.83-.57-1.54-1.41-2.95-2.11-4.47ZM270.37 63.35c-.52-.46-.67-.94-.83-1.41-1.13-3.34-2.72-6.53-3.89-9.87-.34-.97-.92-1.9-1.23-2.9-.18-.59-.63-.49-1.07-.5-4.11-.07-8.22-.13-12.34-.19s-8.01-.11-12.02-.2c-.68-.02-.97.17-1.21.74-1.34 3.2-2.64 6.42-4.12 9.56-.54 1.16-1.04 2.34-1.61 3.48-.32.64-.11.81.58.87 2.31.19 4.61.43 6.92.6.6.04.79.2.75.73-.07.92.28 2.1-.23 2.68-.48.56-1.84.14-2.81.12-5.52-.07-11.04-.18-16.55-.23-.79 0-1.04-.18-.96-.9.09-.82-.24-1.82.17-2.44.41-.61 1.6-.25 2.44-.34 1.8-.18 2.7-1.08 3.35-2.59 1.57-3.61 3.25-7.19 5.07-10.7.79-1.52 1.41-3.09 2.19-4.6 1.89-3.7 3.62-7.45 5.44-11.18.75-1.53 1.41-3.09 2.19-4.61 1.89-3.7 3.64-7.45 5.44-11.18.64-1.32 1.33-2.64 1.89-3.99.48-1.15 1.3-2.15 1.71-3.33.13-.37.37-.47.78-.46 4.53.08 9.07.15 13.6.21.42 0 .61.14.75.5 1.01 2.54 2.14 5.03 3.22 7.54 1.61 3.74 3.24 7.48 4.86 11.22.56 1.29 1.1 2.59 1.67 3.88 1.03 2.32 1.92 4.69 2.95 7.01.84 1.88 1.44 3.85 2.41 5.67.97 1.81 1.54 3.74 2.42 5.56 1.67 3.48 3.29 6.98 4.58 10.59.23.63.71.92 1.36 1.03 1.21.21 2.41.43 3.63.57.59.07.82.26.72.78v.1c-.04.89.28 2.06-.22 2.58-.53.55-1.85.14-2.82.12-8.61-.12-17.22-.28-25.83-.37-1.09-.01-1.35-.29-1.3-1.25.12-2.26.06-2.25 2.58-2.43 1.71-.13 3.41-.3 5.35-.47ZM240.4 43.59c7.26.11 14.45.23 21.74.34-.58-1.51-1.09-2.9-1.76-4.26-.92-1.87-1.49-3.87-2.37-5.78-1.04-2.27-1.85-4.64-2.78-6.96-.92-2.3-2-4.53-2.95-6.81-.08-.19-.06-.54-.34-.54-1.62 2.08-2.2 4.53-3.52 6.68-1.08 1.76-1.67 3.74-2.6 5.58-1.39 2.76-2.63 5.59-3.81 8.43-.47 1.14-1.26 2.15-1.61 3.32Z"
      class="cls-3"
    />
    <path
      d="M76.72 77.83c1.14 3.12 2.66 6.11 4.11 9.12.13.26.23.53.35.8.67 1.6 1.25 3.22 2.14 4.73.21.35.42.74.36 1.18h.01c-1.42-.68-2.45-1.81-3.58-2.77-2.71-2.31-5.43-4.6-8.17-6.88-.46-.38-.64-.4-1 .11a25.547 25.547 0 0 1-3.66 4.14c-1.08.98-2.51 1.5-3.83 2.13-4.58 2.18-9.59 3.06-14.63 3.78-1.63.23-3.28-.21-4.93-.21-4.95.02-9.76-.73-14.37-2.37-2.48-.89-4.8-2.07-6.99-3.48-1.7-1.09-3.23-2.34-4.68-3.67-.68-.61-1.1-.09-1.49.21-.88.68-1.71 1.4-2.59 2.08-2.2 1.71-4.31 3.52-6.47 5.28-.41.34-.88.62-1.47.84 2.56-5.27 5.12-10.54 7.67-15.81.35-.01.7-.03 1.05-.03 14.67.21 29.34.45 44.02.61 2.41.03 4.83-.11 7.24.06.17.11.36.2.51.32 2.88 2.47 5.71 4.99 8.67 7.38 1.21.97 2.16 2.22 3.72 2.99-1.58-3.6-3.11-7.09-4.64-10.58.89.01 1.78.03 2.67.04ZM22.62 58.74c.37-1.6 1.19-3.04 1.92-4.51.1-.2.3-.41.41-.64 1.4-2.97 2.74-5.97 4.21-8.92 1.79-3.6 3.48-7.25 5.28-10.85.7-1.41 1.34-2.84 2.04-4.25 1.87-3.75 3.65-7.53 5.49-11.28.88-1.79 1.68-3.61 2.55-5.41.48-.98 1.22-1.48 1.92-1.12.6.31.79.99 1.09 1.54.27.51.44 1.07.66 1.61 1.1 2.75 2.42 5.42 3.61 8.13 1.5 3.41 3.08 6.8 4.61 10.2 1.58 3.49 3.12 6.99 4.75 10.46.82 1.75 1.49 3.56 2.35 5.29 1.72 3.47 3.26 7 4.76 10.55.14.32.58.49.47.9-1.45-.64-2.73-1.52-3.91-2.51.42-.3.06-.6-.04-.86-.35-.92-.86-1.8-1.26-2.7-1.54-3.54-3.04-7.09-4.74-10.57-.89-1.82-1.58-3.72-2.43-5.57-1.59-3.48-3.15-6.98-4.68-10.48-1.22-2.8-2.57-5.56-3.68-8.4-.18-.45-.25-.97-.7-1.43-.14 1.78-.31 3.46-.39 5.1-.38 8.55-.53 17.11-.75 25.66 0 .31-.12.65.2.9-.51.33-.98.73-1.54.96-.89.36-1.58 1.16-2.57 1.19a9.62 9.62 0 0 1-4.16-.77c-1.3-.55-2.72-.74-4.07-.26-1.13.4-2.08 1.12-3.01 1.87-2.01 1.62-4 3.27-6.13 4.74-.71.5-1.34 1.19-2.29 1.41Z"
      class="cls-2"
    />
    <path
      d="M22.62 58.74c.95-.22 1.57-.92 2.29-1.41 2.13-1.48 4.13-3.12 6.13-4.74.92-.74 1.87-1.47 3.01-1.87 1.35-.48 2.77-.29 4.07.26 1.34.57 2.73.82 4.16.77.99-.04 1.69-.83 2.57-1.19.56-.23 1.03-.63 1.54-.96.81-.26 1.37-.87 2.08-1.27.73-.42 1.45-.91 2.32-1 1.52-.16 2.88.29 4.09 1.14 1.8 1.28 3.13 2.97 4.72 4.43 1.78 1.65 3.4 3.44 5.25 5.04 1.18 1 2.45 1.87 3.91 2.51 1.4 1.18 3.17 1.64 4.95 1.77 5.64.4 11.3.44 16.95.45 1.48 0 .89.84 1.01 1.44.16.83-.33.89-1.07.88-5.31-.11-10.61-.21-15.92-.24-1.51 0-2.86-.51-4.27-.82-1.01-.43-1.97-.94-3.04-1.23-.44-.53-1.13-.71-1.7-1.07-2.65-1.72-4.95-3.79-7.11-5.98-1.77-1.79-3.6-3.53-5.46-5.24-.94-.86-1.94-.96-3.13-.4-1.54.72-2.66 1.91-4.04 2.81-.6.37-1.16.88-1.82 1.08-2.22.66-4.46.66-6.56-.41-1.4-.71-2.51-.69-3.85.3-1.33.97-2.62 1.99-3.9 3.03-.93.76-1.8 1.59-2.79 2.3-2.02 1.45-4.14 2.77-6.54 3.67-.12 0-.31-.09-.25.15v-.03c-6.12.7-12.25.04-18.37.14-.86.01-1.04-.24-.99-.97.1-1.52.05-1.52 1.76-1.5 4.74.07 9.48.13 14.23.24 1.55.04 2.97-.24 4.23-1.07.45-.3 1.08-.31 1.4-.78.13-.02.19-.08.15-.2Z"
      class="cls-3"
    />
    <path
      d="M70.79 65.24c1.39.47 2.85.63 4.31.66 5.16.11 10.33.19 15.5.24.84 0 1.15.15 1.1.98-.1 1.51-.04 1.51-1.67 1.49-5.1-.08-10.19-.18-15.29-.22-.85 0-1.65-.3-2.49-.21-.86-.34-1.8-.24-2.68-.43-3.33-.84-6.41-2.18-9.37-3.77-2.66-1.42-5.33-2.84-8.12-4.04-1.98-.85-4.02-1.57-6.28-1.41-.68 0-1.31-.33-2.06-.12-1.09.31-2.05.75-2.93 1.4-.46.34-.9.63-1.54.74-1.45.26-2.85.15-4.25-.19-1.21-.3-2.4-.45-3.43.4-.98.8-1.98 1.58-3.02 2.33-2.98 2.13-6.21 3.61-10.08 3.69-.12 0-.3-.08-.24.15v-.03c-5.46-.08-10.93-.18-16.4-.22-.87 0-1.12-.2-1.08-1.01.1-1.64.04-1.64 1.88-1.61l15.59.27c.52 0 1.05.07 1.57-.08.21 0 .42.01.62-.03 2.79-.55 4.94-2.16 7.12-3.67 1.25-.87 2.5-1.73 3.75-2.6.65-.46 1.43-.56 2.09-.26 2.28 1.04 4.42.42 6.45-.44 1.94-.82 3.9-1.34 6.02-1.4.79.37 1.66.14 2.48.29 2.65.49 5.04 1.55 7.35 2.79 2.51 1.35 5 2.73 7.58 3.96 1.45.69 2.99 1.28 4.62 1.58v-.02c-.06.2.09.17.22.17.87.31 1.77.53 2.69.63Z"
      class="cls-3"
    />
    <path
      d="M16.77 70c-4.28.03-8.56.07-12.83.1-1.09 0-2.18-.03-3.27 0-.51.01-.72-.15-.66-.6v-.19c0-2.26 0-2.27 2.49-2.22 5.06.1 10.11.2 15.17.29.21 0 .42-.04.62-.07 1.37.16 2.72.05 4.06-.21 3.7-.74 6.99-2.37 10.28-3.98.8-.39 1.55-.88 2.51-.9 2.04-.04 4.11 0 6.02.68 2.85.99 5.69 1.71 8.77 1.25 1.22-.07 2.44-.18 3.66-.2 1.21-.02 2.43-.01 3.57.47 2.68 1.13 5.34 2.29 8.04 3.36 1.5.6 3.05 1.1 4.75.89.83.01 1.66.03 2.49.04 5.75.1 11.5.23 17.26.28 1.05 0 1.4.22 1.3 1.21-.13 1.29-.04 1.29-1.48 1.27-5.23-.08-10.45-.15-15.68-.22-.88 0-1.76-.02-2.64-.03-2.08.05-4.1-.29-6.02-.98-2.79-1-5.48-2.19-8.17-3.38-1.4-.62-2.88-.83-4.4-.37-.97-.03-1.85.27-2.72.59-.94.35-1.93.44-2.87.13-2.43-.79-4.82-1.68-7.25-2.49-1.66-.55-3.27-.67-4.97.09-2.47 1.1-4.88 2.32-7.47 3.21-1.69.58-3.35 1.33-5.13 1.59-1.79.26-3.62.26-5.43.38ZM76.72 77.83c-.89-.01-1.78-.03-2.67-.04-2.75-.04-5.5-.08-8.26-.11-2.41-.17-4.83-.03-7.24-.06-14.67-.16-29.34-.4-44.02-.61-.35 0-.7.02-1.05.03-3.93-.08-7.86-.18-11.79-.22-.88 0-1.12-.22-1.08-1.02.09-1.66.04-1.65 1.84-1.62 4.18.06 8.35.09 12.53.14.31.03.63.07.94.07 14.88.24 29.75.49 44.63.72.7.01 1.4-.03 2.1-.05 3.39.16 6.77.19 10.16.17l2.49.03c4.24.08 8.48.17 12.72.25.49 0 .98 0 1.47.02 1.64.05 1.32-.17 1.42 1.26.07 1-.27 1.24-1.37 1.21-4.27-.12-8.55-.14-12.82-.19Z"
      class="cls-3"
    />
    <path
      d="M74.1 72.36c4.98.09 9.96.19 14.94.28 1.94.04 1.91.03 1.91 1.76 0 .62-.22.74-.85.72-4.87-.15-9.74-.28-14.61-.42-.07 0-.14.01-.21.02l-2.65-.03c-2.54-.19-5.08-.4-7.58-.92-1.54-.32-3.06-.81-4.67-.84l.02.02c.08-.24-.12-.17-.25-.17-.81-.2-1.61-.4-2.42-.59-4.34-1-8.68-1.93-13.22-1.46-3.53.37-7.08.64-10.6 1.04-6.22.71-12.37 1.93-18.69 1.85-4.49-.15-8.97-.32-13.46-.42-.86-.02-1.23-.19-1.07-1 .04-.19.04-.39.01-.57-.11-.73.15-.98 1.01-.93 4.27.23 8.54.4 12.82.58.59.03 1.19 0 1.79 0 .45 0 .92.07 1.36.01 2.04-.25 4.07-.59 6.11-.79 4.44-.44 8.84-1.13 13.26-1.67 1.52-.18 3.05-.55 4.56-.51 4.65.12 9.34-.3 13.93.71 2.18.59 4.37 1.18 6.55 1.78 3.1.85 6.19 1.75 9.49 1.52.83 0 1.67.02 2.5.02ZM162.53 94.1c-1.78.9-3.57 1.45-5.57 1.21-2.53-.31-4.55-1.48-5.73-3.45-2.09-3.5-.12-6.16 3.11-7.75 2.6-1.28 5.24-.65 7.8.35.22.09.45.17.68.25.03 0 .07 0 .18-.01-.18-1.18.77-.93 1.5-.91 2.2.05 1.74-.12 1.75 1.58.02 3.38.15 6.77-.43 10.14-.5 2.89-1.54 4.13-5.18 4.78-3.26.58-6.41.2-9.22-1.6-.45-.29-.4-.54-.04-.82.1-.08.25-.11.34-.2.43-.37.3-1.21 1.11-1.23.61-.02 1 .51 1.55.73 1.42.57 2.86.85 4.39.77 2.22-.12 4.23-1.31 3.77-3.83Zm-3.75-1.11c1.09.19 2.02-.62 2.94-1.32 1.37-1.04 1.4-3.82.1-4.69-2.06-1.37-5.82-1.35-7.37.99-.48.72-.7 1.39-.44 2.12.54 1.52 2.67 2.85 4.76 2.9ZM380.57 97.58c-1.39.51-2.72 1.2-4.28 1.19-2.12-.02-3.89-.72-5.49-2.04-2.31-1.91-2.94-4.73-1.21-7 1.32-1.73 3.25-2.67 5.56-2.85 1.73-.13 3.44 0 4.94.98.46.3.9.42 1.21-.23.36-.77 1.15-.36 1.76-.43 1.1-.12 1.42.25 1.4 1.32-.05 3.38.11 6.76-.37 10.13-.45 3.19-2 4.49-5.47 5.12-3.06.55-5.99.01-8.7-1.43-.61-.32-.81-.63-.34-1.27.97-1.33.91-1.33 2.45-.71 1.48.59 3.01 1.04 4.67 1.02 2.57-.02 4.01-1.27 4.08-3.59.08-.08.11-.17 0-.24-.04-.02-.13.02-.19.03Zm-3.77-8.12c-1.69-.16-3.04.4-4.09 1.45-.62.61-.69 1.45-.51 2.27.18.84.3 1.6 1.36 2.14 2.74 1.41 4.23 1.41 6.55-.38.98-.75 1.21-3.43.3-4.18-1.03-.84-2.21-1.45-3.61-1.31ZM337.01 97.39c-.03 1.71-.08 3.33-.06 4.95 0 .59-.17.75-.83.75-2.91-.01-2.91 0-2.87-2.56.07-4.38.15-8.75.19-13.13 0-.79.24-1.09 1.09-.79.92.33 2.04.02 2.83.78.17.17.3-.06.43-.14 2.97-1.8 8.46-.6 10.22 1.7 1.61 2.11 1.79 4.69.07 6.92-2.47 3.2-5.35 3.9-9.31 2.25-.54-.22-1.07-.45-1.76-.73Zm8.55-4.83c.06-2.61-1.14-3.55-4.62-3.6-2.14-.03-3.77 1.38-3.81 3.3-.04 2.19 1.85 4.23 4.14 4.1 2.76-.15 4.12-.87 4.28-3.79Z"
      class="cls-3"
    />
    <path
      d="M15.22 73.62c6.31.08 12.47-1.14 18.69-1.85 3.53-.4 7.07-.67 10.6-1.04 4.53-.47 8.88.45 13.22 1.46.81.19 1.62.39 2.42.59.08.06.16.11.24.17l-.02-.02c.67.79 1.72 1.25 2.27 2.14-.7.02-1.4.06-2.1.05l-44.63-.72c-.31 0-.63-.05-.94-.07-.04-.27.09-.49.24-.71Z"
      class="cls-2"
    />
    <path
      d="M104.13 51.27c.26-16.68.52-33.37.8-50.05 0-.42-.4-1.25.44-1.22.76.03.38.82.37 1.26-.13 11.63-.36 23.27-.43 34.9-.14 21.8-.61 43.59-.9 65.39 0 .26 0 .51-.02.77-.02.34-.31.28-.54.28-.24 0-.51.03-.5-.32v-.77l.78-50.25ZM217.06 91.62c.21.93.62 1.46 1.46 1.87 1.29.64 2.54 1.19 4.07 1.01.79-.09 1.48-.32 2.11-.77.35-.25.81-.47 1.26-.16.6.41 1.31 1.01 1.24 1.58-.07.56-.94 1.01-1.62 1.22-3.68 1.09-7.18.91-10.28-1.48-1.42-1.1-2.05-4.21-1.47-6.2.87-2.95 3.32-3.79 6.22-4.11 3.48-.39 6.14.9 8.03 3.49.72.98.52 2.23.48 3.37-.02.5-.5.35-.82.34-2.6-.03-5.2-.08-7.8-.12-.91-.01-1.82-.03-2.88-.04Zm3.92-1.74c1.12.02 2.25 0 3.36.07.88.06.82-.25.58-.82-.51-1.19-1.43-1.91-2.77-2.25-1.98-.49-4.45.59-4.99 2.21-.17.5-.14.77.57.75 1.09-.03 2.17.02 3.26.04ZM408.59 98.57c-2.71 2.1-6.42 1.69-8.92-.59-1.03-.94-.75-3.1.3-4 1.49-1.26 3.29-1.45 5.17-1.49 1.05-.02 2.11 0 3.16.05.56.03.65-.17.56-.62-.24-1.17-1.29-1.94-2.9-2.1-1.47-.14-2.88.14-4.21.65-.63.24-.87.12-1.1-.37-.09-.2-.22-.4-.36-.59-.7-.92-.71-.95.5-1.33 2.8-.9 5.62-1.29 8.52-.28 2.15.75 3.02 2.42 3.21 4.22.25 2.41.04 4.85.03 7.28 0 .37-.16.51-.57.49-.77-.03-1.55-.03-2.32-.04-.94-.02-.59-.9-1.08-1.28Zm-3.27-.86c2.16.05 3.39-.88 3.52-2.53.02-.24.16-.55-.3-.55-1.6-.01-3.23-.24-4.81.11-1.28.28-1.57 1.39-.68 2.29.66.67 1.57.61 2.26.69ZM178.88 91.03c-1.69-.03-3.37-.03-5.06-.09-.66-.02-.73.2-.46.66.57.98 1.55 1.57 2.64 1.9 1.63.5 3.29.65 4.8-.43.34-.24.84-.42 1.27-.17.65.37 1 .99 1.31 1.59.11.21-.28.32-.46.44-2.69 1.75-5.67 1.82-8.61.81-4.94-1.69-5.71-5.82-3.47-9.36 1.17-1.86 3.39-2.46 5.68-2.56 3.07-.14 5.63.88 7.47 3.15.9 1.12.73 2.5.7 3.8-.01.43-.44.33-.74.32-1.69-.02-3.37-.05-5.06-.08Zm-1.48-1.83c1.16.02 2.32.04 3.48.05.31 0 .81.02.51-.41-.79-1.13-1.43-2.41-3.17-2.69-1.64-.26-3.83.45-4.75 1.68-.25.33-.39.72-.25 1.09.15.41.61.2.92.21 1.09.04 2.18.04 3.27.06ZM443.1 98.81c-2.1 1.94-4.37 1.85-6.61 1.26-2.49-.65-3.85-2.23-3.24-4.36.44-1.55 1.86-2.06 3.34-2.4 1.79-.42 3.63-.26 5.45-.24 1.06.01 1.14-.09.83-1.03-.23-.69-.68-1.16-1.48-1.35-1.92-.46-3.83-.47-5.64.33-.54.24-.74.14-.93-.29-.03-.06-.06-.12-.1-.17-1.04-1.47-1.06-1.53.83-2.04 2.81-.75 5.63-.94 8.44.17 1.06.42 1.7 1.09 1.99 2.06.57 1.91.9 3.84.78 5.82-.06 1.05-.09 2.11-.07 3.16 0 .52-.14.77-.76.7a5.32 5.32 0 0 0-1.26-.02c-1.06.13-1.71-.15-1.56-1.6Zm-3.62-.53c.21 0 .43.02.63-.03 2.15-.45 2.78-.94 2.9-2.59.03-.38-.11-.51-.52-.52-1.33-.03-2.66-.2-3.99-.04-.77.1-1.38.39-1.87.94-.21.24-.24.4-.06.65.69.97 1.57 1.62 2.91 1.59ZM263.89 94c-.02 1.02-.06 2.04-.04 3.06.01.64-.47.58-.85.49-.85-.2-2.08.56-2.53-.48-.4-.91-.29-1.05-1.15-.38-2.1 1.62-6.19.92-7.88-.78-1.43-1.44-1.6-4.3 1.45-5.1 2.1-.55 4.2-.62 6.34-.61.4 0 1.03.22 1.14-.16.15-.47-.02-1.02-.47-1.47-.66-.68-1.49-.94-2.41-.99-1.54-.09-3.1-.14-4.49.64-.44.25-.7.15-.9-.25-.1-.2-.24-.39-.36-.58-.75-1.22-.69-1.28.75-1.7 2.36-.68 4.74-.77 7.16-.32 3.03.56 3.98 1.6 4.23 4.71.1 1.3.18 2.61.01 3.92Zm-5.68-1.73c-1.09-.03-2.16.02-3.22.28-.53.13-1.06.26-1.18.8-.13.59.24 1.06.71 1.4 1.55 1.12 4.41.76 5.51-.71.33-.44.57-1.04.37-1.53-.18-.43-.81-.16-1.23-.22-.31-.04-.63-.02-.94-.02ZM323.02 86.07c4.37.13 7 2.02 7.57 5.29.6 3.41-1.41 5.7-4.58 6.75-3.78 1.24-7.09.29-9.81-2.35-1.96-1.9-1.56-5.74.6-7.56 1.88-1.58 4.11-2.06 6.22-2.13Zm-.21 10c.22-.03.68-.05 1.12-.15 1.64-.35 3.02-1.73 3.27-3.22.26-1.6-.29-2.71-1.78-3.53-1.06-.59-2.23-.57-3.36-.35-.65.13-1.38-.09-1.96.47-1.33 1.29-1.75 3.11-.97 4.7.67 1.36 1.83 2.04 3.69 2.09ZM132.78 89.39c.03-1.79.07-3.58.07-5.37 0-.54.18-.75.79-.7.56.05 1.12.02 1.68 0 .47-.02.83.07.97.53.16.54.51.5.93.27 2.41-1.32 4.92-1.08 7.41-.28 1.52.49 2.23 1.75 2.6 3.03.61 2.09.4 4.25.26 6.39-.01.16-.04.32-.05.48-.07.66.27 1.72-.24 1.88-.93.3-2.07.12-3.11.07-.55-.03-.33-.49-.32-.77.02-1.85.08-3.7.11-5.56 0-.29-.02-.58-.07-.86-.29-1.65-.88-2.3-2.33-2.6-2.01-.41-3.2-.01-4.27 1.27-1.14 1.36-.92 2.93-1 4.46-.05 1.09-.06 2.17-.03 3.26.01.56-.22.68-.8.68-2.69.02-2.69.03-2.65-2.36l.06-3.84ZM359.44 99.14c-4.5.21-8.56-2.84-8.25-6.91.2-2.6 1.69-3.92 4.29-4.91 2.48-.94 5.05-.98 7.56.06 3.94 1.62 4.99 6.05 2.73 8.94-1.41 1.81-3.58 2.68-6.34 2.82Zm4.05-6.32c.2-1.7-1.67-3.59-4.32-3.67-2.67-.08-4.41 1.67-4.43 3.65-.03 2.05 1.71 3.69 3.94 3.85 2.6.19 4.95-2.12 4.81-3.83ZM273.74 85.53c3.71-.13 3.68-.12 4.99 2.89.71 1.64 1.59 3.23 2.35 4.85.35.73.75.58 1.14.1.27-.33.47-.71.62-1.1.82-2.06 2.09-3.92 3.01-5.94.24-.53.58-.7 1.19-.65.73.07 1.47.06 2.21.07.53 0 .7.18.26.52-.26.2-.35.47-.48.72-1.37 2.56-2.58 5.2-4.13 7.67-1.17 1.88-2.04 3.9-3.49 5.66-2.15 2.61-5.04 2.38-7.58 1.26-.54-.24-.68-.61-.36-1.1a.95.95 0 0 0 .1-.17q.71-1.33 2.26-.76c1.55.57 3.28-.11 3.81-1.52.15-.41.18-.88-.12-1.19-.41-.43-.6-.94-.82-1.42-1.11-2.47-2.54-4.8-3.62-7.28-.38-.86-1.03-1.63-1.34-2.63ZM191.56 85.3c2.13-1.17 4.3-1.52 6.58-1.08 2.53.49 3.99 2.03 4.18 4.39.2 2.46.02 4.92.03 7.37 0 .52-.22.67-.75.63-.49-.04-.98-.02-1.47-.03q-1.33-.02-1.27-1.27c.09-1.66.17-3.31.12-4.98-.03-.99-.41-1.84-.95-2.66-.57-.86-1.53-1.01-2.47-1.04-2.2-.06-3.33.4-3.86 2.42-.55 2.11-.34 4.26-.38 6.39-.01.77-.19 1.03-1.1 1-2.6-.09-2.6-.05-2.57-2.43.05-2.97.13-5.94.12-8.91 0-.82.28-1.08 1.14-.95.34.05.7 0 1.05.03.78.05 1.72-.12 1.6 1.12ZM305.71 82.23c2.39.04 4.77.1 7.16.1.7 0 .98.15.96.85-.05 1.9-.01 1.9-2.11 1.86-1.12-.02-2.25-.01-3.37-.06-.58-.03-.79.12-.79.68-.02 3.93-.09 7.85-.11 11.78 0 .59-.13.83-.87.82-2.83-.03-2.83 0-2.79-2.57.04-3.35.06-6.7.12-10.05.01-.6-.14-.84-.86-.82-1.58.05-3.16 0-4.73.03-.64.01-.83-.14-.83-.75.02-1.99 0-1.99 2.21-1.96l6 .09ZM416.88 94.98c.02-1.37.02-2.75.07-4.12.02-.51-.1-.73-.73-.75-1.84-.06-1.94-.23-1.7-1.94.06-.39.23-.47.6-.45.42.02.84-.03 1.26 0 .44.03.58-.1.63-.52.37-3.29 1.75-4.44 6.06-4.29.31.01.63.08.93.15 1.71.36 1.68.35 1.01 1.83-.22.5-.58.61-1.05.59-.49-.02-.97-.12-1.46-.15-1.28-.08-2.3.96-2.16 2.15.05.43.37.3.61.31.84.03 1.69.06 2.53.04.66-.02.98.2.91.83-.03.25-.04.51-.01.77.08.67-.24.91-.97.84-.66-.06-1.34.01-2-.05-.69-.07-.81.2-.81.76-.01 2.75-.1 5.49-.1 8.24 0 .68-.23.85-.96.83-2.74-.05-2.74-.03-2.71-2.56.01-.83.03-1.66.04-2.49Z"
      class="cls-3"
    />
    <path
      d="M55.55 69.04c-4.6-1.01-9.28-.59-13.93-.71-1.51-.04-3.04.32-4.56.51-4.42.54-8.82 1.23-13.26 1.67-2.04.2-4.07.54-6.11.79-.44.05-.91 0-1.36-.01.15-.43.3-.86.44-1.28 1.81-.12 3.64-.12 5.43-.38 1.79-.26 3.44-1.01 5.13-1.59 2.59-.89 5-2.11 7.47-3.21 1.69-.75 3.31-.64 4.97-.09 2.42.81 4.82 1.7 7.25 2.49.94.3 1.93.21 2.87-.13.87-.32 1.75-.62 2.72-.59 1.1.74 2.16 1.51 2.95 2.54ZM45.85 55.84c-2.12.06-4.09.58-6.02 1.4-2.03.86-4.17 1.49-6.45.44-.65-.3-1.43-.2-2.09.26-1.24.87-2.5 1.74-3.75 2.6-2.18 1.51-4.33 3.12-7.12 3.67-.2.04-.41.02-.62.03.03-.48.53-.84.39-1.36v.03c.08-.05.17-.1.25-.15 2.4-.89 4.52-2.22 6.54-3.67.99-.71 1.86-1.54 2.79-2.3 1.27-1.04 2.57-2.06 3.9-3.03 1.35-.99 2.45-1.01 3.85-.3 2.1 1.07 4.34 1.07 6.56.41.66-.2 1.22-.71 1.82-1.08-.02 1.01-.05 2.02-.07 3.03Z"
      class="cls-2"
    />
    <path
      d="M49.93 64.13c-3.07.47-5.92-.25-8.77-1.24-1.91-.67-3.97-.71-6.02-.68-.96.02-1.71.51-2.51.9-3.29 1.61-6.57 3.24-10.28 3.98-1.34.27-2.69.37-4.06.21-.01-.14-.03-.28-.04-.42v.03l.24-.15c3.87-.08 7.1-1.55 10.08-3.69 1.04-.75 2.04-1.52 3.02-2.33 1.04-.85 2.22-.7 3.43-.4 1.4.34 2.8.45 4.25.19.63-.11 1.08-.4 1.54-.74.87-.64 1.84-1.09 2.93-1.4.75-.21 1.37.11 2.06.12 0 .29.05.57.02.86-.1.81.12 1.37.91 1.92 1.17.82 2.15 1.87 3.21 2.83Z"
      class="cls-2"
    />
    <path
      d="M124.04 87.35c.04-2.33.11-4.66.09-6.99 0-.82.28-1.05 1.14-.96.73.08 1.47.06 2.21.04.56-.02.71.19.7.68-.11 4.88-.2 9.76-.28 14.65 0 .54-.18.75-.79.69-1.04-.1-2.39.35-3.02-.25-.49-.48-.14-1.7-.13-2.59.02-1.76.05-3.51.08-5.27ZM231.58 90.95c.03-1.79.07-3.58.07-5.37 0-.51.13-.77.76-.72.52.05 1.05.03 1.58 0 .56-.04.91.1 1.07.64.12.39.27.58.84.22 1.21-.76 2.7-.8 4.12-.98.07 0 .17 0 .2.03.64.76.15 1.62.27 2.43.07.52-.39.42-.71.43-.25.01-.49 0-.74 0-2.3-.02-3.01.62-3.67 2.64-.65 2.01-.34 4.03-.44 6.05-.03.59-.14.82-.87.81-2.58-.04-2.58-.01-2.54-2.36l.06-3.83ZM392.01 88.9c1.51-1.38 3.06-1.58 4.64-1.73.48-.04.66.07.6.5-.02.13 0 .26 0 .38-.03.64.19 1.43-.15 1.86-.38.49-1.31.18-1.99.14-1.35-.08-2.74 1.45-2.98 2.64-.38 1.96-.27 3.95-.25 5.92 0 .72-.11 1-1 .97-2.46-.08-2.46-.04-2.43-2.27.05-3.07.11-6.13.13-9.2 0-.61.16-.9.88-.79.24.04.49 0 .74.02.93.03 2.1-.27 1.82 1.56ZM426.3 93.95c.03-1.82.07-3.64.07-5.45 0-.49.15-.63.71-.64 3.02-.03 3.02-.04 2.98 2.66-.05 2.93-.11 5.87-.12 8.8 0 .66-.2.86-.95.84-2.75-.05-2.75-.03-2.72-2.48l.06-3.73h-.04ZM210.02 90.64c-.03 1.76-.07 3.51-.07 5.27 0 .57-.09.85-.85.84-2.63-.03-2.63 0-2.6-2.41.05-3 .11-6.01.12-9.01 0-.65.18-.96.94-.84.27.04.56.02.84.02q1.71.02 1.69 1.63c-.02 1.5-.05 3-.07 4.5ZM243.43 91.05c.03-1.79.08-3.57.07-5.36 0-.54.17-.68.77-.68 2.67 0 2.66-.01 2.64 2.39-.03 3.03-.06 6.06-.04 9.08 0 .68-.23.85-.96.83-2.57-.05-2.57-.03-2.53-2.34l.06-3.92ZM208.59 82.47c-1.34-.03-2.17-.69-2.12-1.66.05-.98.79-1.85 1.54-1.83 1.59.04 3.06.83 3.01 1.61-.06.87-1.39 1.91-2.42 1.88ZM250.66 80.23c-2.36 1.44-4.08 3.67-7.35 3.08.46-.84 1.19-1.44 1.9-1.99.47-.37.7-1.09 1.33-1.13 1.3-.08 2.61.01 4.12.04ZM426.15 86.1c1.13-.91 2.02-1.94 2.95-2.93.15-.16.36-.18.58-.15 1.05.15 2.11.3 3.41.48-2.13 1.48-3.88 3.18-6.94 2.6Z"
      class="cls-3"
    />
    <path
      d="M70.79 65.24c-.93-.1-1.82-.33-2.69-.63l-.23-.17.01.02c.07-.65-.48-1.14-.53-1.76 1.08.28 2.04.8 3.04 1.23.13.44.26.88.4 1.32ZM74.1 72.36c-.83 0-1.67-.02-2.5-.02-.13-.37-.27-.74-.4-1.12.88 0 1.76.02 2.64.03.09.37.17.74.26 1.11ZM72.44 68.71c-.83-.01-1.66-.03-2.49-.04-.13-.31-.25-.62-.38-.92.89.19 1.83.09 2.68.43.06.18.12.35.19.53ZM72.62 74.7l2.65.03c.01.18.02.36.04.55l-2.49-.03c-.06-.18-.13-.36-.19-.54ZM22.62 58.74c.04.12-.03.18-.15.2-.02-.11 0-.2.15-.2ZM83.67 93.66s.06.05.1.07c-.02 0-.05 0-.06-.01a.185.185 0 0 1-.02-.07l-.01.01Z"
      class="cls-2"
    />
    <path
      d="M65.8 77.68c2.75.04 5.5.08 8.26.11 1.53 3.49 3.06 6.99 4.64 10.58-1.55-.77-2.51-2.02-3.72-2.99-2.96-2.39-5.78-4.91-8.67-7.38-.15-.13-.34-.22-.51-.32ZM64.84 57.93c-1.85-1.6-3.47-3.39-5.25-5.04-1.59-1.47-2.92-3.16-4.72-4.43-1.21-.85-2.56-1.3-4.09-1.14-.87.09-1.59.59-2.32 1-.71.4-1.27 1.01-2.08 1.27-.33-.25-.21-.59-.2-.9.22-8.55.37-17.11.75-25.66.07-1.65.25-3.33.39-5.1.45.46.52.97.7 1.43 1.11 2.84 2.46 5.6 3.68 8.4 1.53 3.5 3.09 7 4.68 10.48.84 1.85 1.54 3.74 2.43 5.57 1.7 3.48 3.2 7.03 4.74 10.57.39.9.9 1.77 1.26 2.7.1.26.46.56.04.86Z"
      class="cls-1"
    />
    <path
      d="M67.36 62.69c.05.62.6 1.12.53 1.76-1.63-.3-3.17-.88-4.62-1.58-2.58-1.23-5.07-2.61-7.58-3.96-2.31-1.24-4.7-2.3-7.35-2.79-.82-.15-1.69.08-2.48-.29.02-1.01.05-2.02.07-3.03 1.38-.89 2.5-2.09 4.04-2.81 1.19-.56 2.19-.46 3.13.4 1.86 1.71 3.69 3.45 5.46 5.24 2.16 2.19 4.46 4.26 7.11 5.98.56.36 1.26.54 1.7 1.07ZM20.46 62.76c-.08.05-.17.1-.25.15-.06-.24.12-.16.25-.15ZM69.57 67.74c.13.31.25.62.38.92-1.69.2-3.25-.3-4.75-.89-2.7-1.08-5.36-2.24-8.04-3.36-1.14-.48-2.36-.49-3.57-.47-1.22.02-2.44.13-3.66.2-1.06-.95-2.04-2-3.21-2.83-.79-.55-1.01-1.12-.91-1.92.04-.28 0-.57-.02-.86 2.26-.16 4.3.56 6.28 1.41 2.79 1.2 5.46 2.62 8.12 4.04 2.96 1.58 6.05 2.93 9.37 3.77Z"
      class="cls-1"
    />
    <path
      d="m67.87 64.44.23.17c-.13 0-.28.03-.23-.17ZM18.49 66.76l-.24.15c-.06-.23.12-.15.24-.15ZM71.2 71.22c.13.37.27.74.4 1.12-3.3.23-6.39-.68-9.49-1.52-2.18-.6-4.37-1.19-6.55-1.78-.8-1.03-1.86-1.8-2.95-2.54 1.52-.46 3-.25 4.4.37 2.69 1.19 5.39 2.38 8.17 3.38 1.93.69 3.94 1.02 6.02.98ZM72.62 74.7c.06.18.13.36.19.54-3.39.02-6.78-.01-10.16-.17-.55-.9-1.6-1.35-2.27-2.14 1.61.04 3.12.52 4.67.84 2.5.53 5.04.73 7.58.92Z"
      class="cls-1"
    />
    <path
      d="M60.4 72.95c-.08-.06-.16-.12-.24-.17.13 0 .32-.07.24.17ZM380.57 97.58c.07-.01.15-.06.19-.03.11.07.08.16 0 .24-.06-.07-.13-.14-.19-.2Z"
      class="cls-1"
    />
  </svg>