<?xml version="1.0" encoding="UTF-8"?>
<svg xmlns="http://www.w3.org/2000/svg" width="377.706" height="85.602" viewBox="0 0 377.706 85.602">
  <g id="Grupo_16527" data-name="Grupo 16527" transform="translate(36.499 -96.046)">
    <g id="Grupo_3783" data-name="Grupo 3783" transform="translate(-36.5 96.046)">
      <path id="Trazado_21608" data-name="Trazado 21608" d="M623.347,537.283a3.749,3.749,0,0,1,2.595-1.1,17.477,17.477,0,0,0,12.124-5.367l26.467-26.467a.753.753,0,0,0-.023-1.089c-8.316-7.58-31.609-14.573-53.4,7.214-5.252,5.252-8.06,9.721-9.723,14.63a7.578,7.578,0,0,1-1.8,2.943l-9.36,9.361a.754.754,0,0,1-1.278-.416c-2.259-14.951,6.821-27.675,13.915-34.769,23.938-23.938,56.378-23.129,77.521-.281a2.256,2.256,0,0,1-.07,3.123l-34,34c-8.488,8.487-20.09,10.844-30.308,7.073a.756.756,0,0,1-.273-1.243Z" transform="translate(-585.742 -484.538)" fill="#00ce7c"></path>
      <path id="Trazado_21609" data-name="Trazado 21609" d="M640.783,537.593a3.749,3.749,0,0,1-2.595,1.1,17.476,17.476,0,0,0-12.124,5.367L599.6,570.526a.753.753,0,0,0,.023,1.089c8.316,7.58,31.61,14.573,53.4-7.214,5.252-5.252,8.06-9.721,9.723-14.63a7.579,7.579,0,0,1,1.8-2.943l9.36-9.36a.754.754,0,0,1,1.278.416c2.259,14.951-6.821,27.675-13.915,34.769-23.938,23.938-56.378,23.129-77.521.28a2.256,2.256,0,0,1,.07-3.123l34-34c8.488-8.488,20.089-10.844,30.308-7.073a.756.756,0,0,1,.273,1.243Z" transform="translate(-583.151 -504.735)" fill="#00ce7c"></path>
      <g id="Grupo_16258" data-name="Grupo 16258" transform="translate(125.341 9.948)">
        <path id="Trazado_21610" data-name="Trazado 21610" d="M846.968,533.664a11.291,11.291,0,0,0-4.86-1.032,16.542,16.542,0,0,0-6.258,1.332,26.257,26.257,0,0,0-4.988,2.749l-.049-2.2a1.035,1.035,0,0,0-1.035-1.012H823.24a1.036,1.036,0,0,0-1.036,1.036v32.412a1.036,1.036,0,0,0,1.036,1.036h7.316a1.035,1.035,0,0,0,1.036-1.036V542.872c1-.5,1.944-.965,2.829-1.386a9.592,9.592,0,0,1,4.161-.932,4.926,4.926,0,0,1,1.93.366,2.9,2.9,0,0,1,1.4,1.332,5.477,5.477,0,0,1,.532,2.63v22.064a1.035,1.035,0,0,0,1.036,1.036h7.316a1.035,1.035,0,0,0,1.036-1.036v-23.8a12.257,12.257,0,0,0-1.331-6.158,7.963,7.963,0,0,0-3.529-3.328" transform="translate(-822.204 -517.364)" fill="#003b4a"></path>
        <path id="Trazado_21611" data-name="Trazado 21611" d="M909.759,532.633a16.329,16.329,0,0,0-8.754,2.1,12.293,12.293,0,0,0-4.959,6.224,27.715,27.715,0,0,0-1.6,9.986,31.391,31.391,0,0,0,1.364,10.119,10.216,10.216,0,0,0,4.793,5.825q3.428,1.9,9.486,1.9a36.544,36.544,0,0,0,7.656-.732,35.377,35.377,0,0,0,4.7-1.311,1.032,1.032,0,0,0,.626-1.265l-1.432-4.821a1.032,1.032,0,0,0-1.275-.7q-.628.182-1.449.408a30.858,30.858,0,0,1-3.5.733,26.478,26.478,0,0,1-4.06.3,10.179,10.179,0,0,1-4.727-.865,4.44,4.44,0,0,1-2.164-2.829,19.128,19.128,0,0,1-.562-4.959h18.915a1.037,1.037,0,0,0,1.036-.986q.03-.695.051-1.377.033-1.165.033-2.3,0-7.921-3.4-11.683t-10.784-3.761m-5.843,14.046a10.232,10.232,0,0,1,1.25-5.359q1.264-1.829,4.527-1.83,3.129,0,4.261,1.664t1.132,5.526Z" transform="translate(-856.571 -517.365)" fill="#003b4a"></path>
        <path id="Trazado_21612" data-name="Trazado 21612" d="M994.081,533.7H983.813a18.4,18.4,0,0,0-2.643-.7,21.6,21.6,0,0,0-3.961-.366,19.17,19.17,0,0,0-8.255,1.531,10.286,10.286,0,0,0-4.726,4.294,13.313,13.313,0,0,0-1.531,6.557,11.871,11.871,0,0,0,1.431,5.892,9.524,9.524,0,0,0,4.626,3.995c.294.132.6.252.925.365-.354.336-.738.72-1.158,1.165a15.48,15.48,0,0,0-2,2.663,6.166,6.166,0,0,0-.9,3.229,4.617,4.617,0,0,0,1.365,3.461,5.253,5.253,0,0,0,2.3,1.3,14.088,14.088,0,0,0-5.462,2.03,6.02,6.02,0,0,0-2.6,5.192,7,7,0,0,0,3.5,6.225q3.495,2.23,11.55,2.23,9.452,0,14.046-3a9.828,9.828,0,0,0,4.593-8.787,9.65,9.65,0,0,0-1.5-5.659,8.458,8.458,0,0,0-4.16-3.095,19.046,19.046,0,0,0-6.124-1.032l-7.056-.2a2.284,2.284,0,0,1-1.5-.5,1.665,1.665,0,0,1-.433-1.232,5.9,5.9,0,0,1,.333-1.864c.125-.374.276-.757.442-1.145.748.051,1.53.08,2.354.08a20.513,20.513,0,0,0,8.454-1.464,9.7,9.7,0,0,0,4.626-4.028,11.744,11.744,0,0,0,1.432-5.825,6.888,6.888,0,0,0-1.1-3.695,7.21,7.21,0,0,0-1.33-1.564h4.721a1.035,1.035,0,0,0,1.035-1.035v-3.987a1.035,1.035,0,0,0-1.035-1.036m-12.612,35.615q2.8.065,3.728.832a2.8,2.8,0,0,1,.932,2.3,3.159,3.159,0,0,1-2.064,2.929,15.862,15.862,0,0,1-6.524,1,11.98,11.98,0,0,1-5.392-.9,3.05,3.05,0,0,1-1.665-2.9,3.4,3.4,0,0,1,1.2-2.863,5.653,5.653,0,0,1,1.159-.676Zm.133-20.6q-1.133,1.565-4.327,1.564-3.13,0-4.294-1.564a6.8,6.8,0,0,1-1.165-4.161,6.924,6.924,0,0,1,1.165-4.227q1.164-1.564,4.294-1.565,3,0,4.227,1.565a6.951,6.951,0,0,1,1.3,4.227,7.286,7.286,0,0,1-1.2,4.161" transform="translate(-888.339 -517.365)" fill="#003b4a"></path>
        <path id="Trazado_21613" data-name="Trazado 21613" d="M1058.737,532.667h-.007q-.333-.033-1-.033a10.244,10.244,0,0,0-4.294.866,9.915,9.915,0,0,0-3.628,3.129c-.415.542-.844,1.173-1.288,1.888l-.088-4a1.035,1.035,0,0,0-1.035-1.012h-6.539a1.035,1.035,0,0,0-1.036,1.035v32.413a1.036,1.036,0,0,0,1.036,1.036h7.315a1.035,1.035,0,0,0,1.035-1.036V544.061c.186-.2.373-.4.567-.578a9.971,9.971,0,0,1,2.962-1.963,8.135,8.135,0,0,1,3.128-.633c.576,0,1.087.024,1.531.067q.264.026.528.063a.777.777,0,0,0,.877-.7l.6-6.8a.772.772,0,0,0-.666-.843" transform="translate(-925.726 -517.365)" fill="#003b4a"></path>
        <path id="Trazado_21614" data-name="Trazado 21614" d="M1111.621,535.03q-3.33-2.4-9.453-2.4a44.915,44.915,0,0,0-7.024.532,51.784,51.784,0,0,0-5.154,1.07,1.039,1.039,0,0,0-.755,1.2l.947,4.872a1.035,1.035,0,0,0,1.244.813q.807-.182,1.754-.4a34.922,34.922,0,0,1,3.5-.6,30.964,30.964,0,0,1,3.761-.233,6.58,6.58,0,0,1,4.061,1q1.264,1,1.265,3.6v2.427q-1.965.052-4.128.1a40.142,40.142,0,0,0-4.992.4q-4.793.534-7.189,3.2t-2.4,7.589q0,5.192,2.53,7.889t7.522,2.7a14.909,14.909,0,0,0,5.558-1.131,14.312,14.312,0,0,0,4.1-2.454l.039,1.773a1.035,1.035,0,0,0,1.035,1.013h6.073a1.036,1.036,0,0,0,1.036-1.036V543.217q0-5.792-3.328-8.188m-11.784,26.894a3.92,3.92,0,0,1-2.662-.866,4.1,4.1,0,0,1-1-3.2,5.251,5.251,0,0,1,1.065-3.628A4.686,4.686,0,0,1,1100.7,553l5.059-.163v7.217a11.644,11.644,0,0,1-1.831.969,10.356,10.356,0,0,1-4.094.9" transform="translate(-948.194 -517.365)" fill="#003b4a"></path>
        <path id="Trazado_21615" data-name="Trazado 21615" d="M1175.217,554.44a1.029,1.029,0,0,0-1.272-.776,10.326,10.326,0,0,1-1.406.29,16.692,16.692,0,0,1-2.231.167,2.535,2.535,0,0,1-2.2-.833,5.156,5.156,0,0,1-.6-2.9V533.284h6.954a1.035,1.035,0,0,0,1.035-1.036v-4.986a1.035,1.035,0,0,0-1.035-1.035h-6.954v-7.844a1.035,1.035,0,0,0-1.138-1.03l-6.62.662a1.036,1.036,0,0,0-.932.988l-.3,7.224h-4.157a1.036,1.036,0,0,0-1.035,1.035v5.052a1.036,1.036,0,0,0,1.035,1.036h3.758v19.372q0,4.394,2.164,6.591t6.756,2.2a31.842,31.842,0,0,0,5.294-.432,18.618,18.618,0,0,0,3.273-.821,1.025,1.025,0,0,0,.632-1.189Z" transform="translate(-979.72 -510.095)" fill="#003b4a"></path>
        <path id="Trazado_21616" data-name="Trazado 21616" d="M1275.325,536.992a7.964,7.964,0,0,0-3.528-3.328,11.3,11.3,0,0,0-4.86-1.032,16.538,16.538,0,0,0-6.258,1.332,26.284,26.284,0,0,0-4.989,2.749l-.048-2.2a1.035,1.035,0,0,0-1.035-1.012h-6.539a1.035,1.035,0,0,0-1.036,1.036v32.412a1.035,1.035,0,0,0,1.036,1.036h7.315a1.035,1.035,0,0,0,1.036-1.036V542.872c1-.5,1.943-.966,2.829-1.386a9.593,9.593,0,0,1,4.161-.932,4.934,4.934,0,0,1,1.931.366,2.9,2.9,0,0,1,1.4,1.332,5.468,5.468,0,0,1,.533,2.63v22.064a1.035,1.035,0,0,0,1.035,1.036h7.316a1.036,1.036,0,0,0,1.036-1.036v-23.8a12.253,12.253,0,0,0-1.332-6.158" transform="translate(-1024.29 -517.364)" fill="#003b4a"></path>
        <path id="Trazado_21617" data-name="Trazado 21617" d="M1218.868,534.283h-7.316a1.035,1.035,0,0,0-1.035,1.036v32.412a1.035,1.035,0,0,0,1.035,1.035h7.316a1.036,1.036,0,0,0,1.036-1.035V535.319a1.036,1.036,0,0,0-1.036-1.036" transform="translate(-1006.922 -518.15)" fill="#003b4a"></path>
        <path id="Trazado_21618" data-name="Trazado 21618" d="M1225.623,503.513h-5.3a1.035,1.035,0,0,0-.935.591l-4.676,9.831a.688.688,0,0,0,.621.983h4.168a1.035,1.035,0,0,0,.886-.5l5.9-9.737a.77.77,0,0,0-.658-1.169" transform="translate(-1008.883 -503.513)" fill="#003b4a"></path>
      </g>
    </g>
  </g>
</svg>
